<?xml version="1.0" encoding="UTF-8" ?>
<svg xmlns="http://www.w3.org/2000/svg" version="1.1">
  <polyline points="106.434,990 106.338,986.283 106.241,982.574 106.145,978.871 106.048,975.175 105.952,971.487 105.855,967.805 105.759,964.131 105.662,960.464 105.565,956.803 105.469,953.15 105.372,949.504 105.276,945.865 105.179,942.233 105.083,938.608 104.986,934.99 104.89,931.379 104.793,927.775 104.697,924.179 104.6,920.589 104.504,917.006 104.407,913.431 104.311,909.862 104.214,906.301 104.117,902.747 104.021,899.199 103.924,895.659 103.828,892.126 103.731,888.6 103.635,885.081 103.538,881.569 103.442,878.064 103.345,874.566 103.249,871.075 103.152,867.592 103.056,864.115 102.959,860.645 102.863,857.183 102.766,853.727 102.67,850.279 102.573,846.837 102.476,843.403 102.38,839.976 102.283,836.556 102.187,833.143 102.09,829.736 101.994,826.337 101.897,822.946 101.801,819.561 101.704,816.183 101.608,812.812 101.511,809.448 101.415,806.092 101.318,802.742 101.222,799.4 101.125,796.064 101.029,792.736 100.932,789.415 100.835,786.1 100.739,782.793 100.642,779.493 100.546,776.2 100.449,772.914 100.353,769.635 100.256,766.363 100.16,763.098 100.063,759.841 99.9667,756.59 99.8701,753.346 99.7736,750.11 99.6771,746.88 99.5805,743.658 99.484,740.442 99.3875,737.234 99.291,734.033 99.1944,730.838 99.0979,727.651 99.0014,724.471 98.9048,721.298 98.8083,718.132 98.7118,714.973 98.6152,711.821 98.5187,708.677 98.4222,705.539 98.3256,702.408 98.2291,699.285 98.1326,696.168 98.0361,693.059 97.9395,689.956 97.843,686.861 97.7465,683.773 97.6499,680.691 97.5534,677.617 97.4569,674.55 97.3603,671.49 97.2638,668.437 97.1673,665.391 97.0707,662.352 96.9742,659.32 96.8777,656.296 96.7812,653.278 96.6846,650.267 96.5881,647.264 96.4916,644.267 96.395,641.278 96.2985,638.296 96.202,635.32 96.1054,632.352 96.0089,629.391 95.9124,626.437 95.8158,623.49 95.7193,620.55 95.6228,617.617 95.5263,614.691 95.4297,611.772 95.3332,608.86 95.2367,605.956 95.1401,603.058 95.0436,600.167 94.9471,597.284 94.8505,594.408 94.754,591.538 94.6575,588.676 94.5609,585.821 94.4644,582.972 94.3679,580.131 94.2714,577.297 94.1748,574.47 94.0783,571.65 93.9818,568.837 93.8852,566.031 93.7887,563.233 93.6922,560.441 93.5956,557.656 93.4991,554.879 93.4026,552.108 93.306,549.345 93.2095,546.588 93.113,543.839 93.0165,541.097 92.9199,538.362 92.8234,535.633 92.7269,532.912 92.6303,530.198 92.5338,527.491 92.4373,524.791 92.3407,522.099 92.2442,519.413 92.1477,516.734 92.0511,514.062 91.9546,511.398 91.8581,508.74 91.7616,506.09 91.665,503.446 91.5685,500.81 91.472,498.181 91.3754,495.559 91.2789,492.943 91.1824,490.335 91.0858,487.734 90.9893,485.14 90.8928,482.553 90.7962,479.974 90.6997,477.401 90.6032,474.835 90.5067,472.276 90.4101,469.725 90.3136,467.18 90.2171,464.643 90.1205,462.112 90.024,459.589 89.9275,457.073 89.8309,454.563 89.7344,452.061 89.6379,449.566 89.5413,447.078 89.4448,444.597 89.3483,442.123 89.2518,439.656 89.1552,437.196 89.0587,434.744 88.9622,432.298 88.8656,429.859 88.7691,427.428 88.6726,425.003 88.576,422.586 88.4795,420.175 88.383,417.772 88.2864,415.376 88.1899,412.987 88.0934,410.604 87.9969,408.229 87.9003,405.861 87.8038,403.5 87.7073,401.147 87.6107,398.8 87.5142,396.46 87.4177,394.127 87.3211,391.802 87.2246,389.483 87.1281,387.171 87.0315,384.867 86.935,382.57 86.8385,380.279 86.742,377.996 86.6454,375.72 86.5489,373.451 86.4524,371.189 86.3558,368.934 86.2593,366.686 86.1628,364.445 86.0662,362.211 85.9697,359.984 85.8732,357.764 85.7766,355.552 85.6801,353.346 85.5836,351.148 85.4871,348.956 85.3905,346.772 85.294,344.594 85.1975,342.424 85.1009,340.261 85.0044,338.105 84.9079,335.955 84.8113,333.813 84.7148,331.678 84.6183,329.551 84.5217,327.43 84.4252,325.316 84.3287,323.209 84.2322,321.109 84.1356,319.017 84.0391,316.931 83.9426,314.853 83.846,312.781 83.7495,310.717 83.653,308.66 83.5564,306.609 83.4599,304.566 83.3634,302.53 83.2668,300.501 83.1703,298.479 83.0738,296.464 82.9773,294.456 82.8807,292.455 82.7842,290.462 82.6877,288.475 82.5911,286.495 82.4946,284.523 82.3981,282.557 82.3015,280.599 82.205,278.648 82.1085,276.703 82.0119,274.766 81.9154,272.836 81.8189,270.913 81.7224,268.997 81.6258,267.088 81.5293,265.186 81.4328,263.291 81.3362,261.403 81.2397,259.522 81.1432,257.648 81.0466,255.782 80.9501,253.922 80.8536,252.07 80.757,250.224 80.6605,248.386 80.564,246.554 80.4675,244.73 80.3709,242.913 80.2744,241.103 80.1779,239.3 80.0813,237.504 79.9848,235.715 79.8883,233.933 79.7917,232.158 79.6952,230.39 79.5987,228.629 79.5021,226.876 79.4056,225.129 79.3091,223.39 79.2126,221.657 79.116,219.932 79.0195,218.213 78.923,216.502 78.8264,214.798 78.7299,213.101 78.6334,211.411 78.5368,209.728 78.4403,208.052 78.3438,206.383 78.2472,204.721 78.1507,203.066 78.0542,201.418 77.9577,199.778 77.8611,198.144 77.7646,196.517 77.6681,194.898 77.5715,193.286 77.475,191.68 77.3785,190.082 77.2819,188.491 77.1854,186.906 77.0889,185.329 76.9923,183.759 76.8958,182.196 76.7993,180.64 76.7028,179.091 76.6062,177.55 76.5097,176.015 76.4132,174.487 76.3166,172.967 76.2201,171.453 76.1236,169.946 76.027,168.447 75.9305,166.955 75.834,165.469 75.7374,163.991 75.6409,162.52 75.5444,161.056 75.4479,159.599 75.3513,158.149 75.2548,156.706 75.1583,155.27 75.0617,153.841 74.9652,152.419 74.8687,151.004 74.7721,149.597 74.6756,148.196 74.5791,146.803 74.4826,145.416 74.386,144.037 74.2895,142.665 74.193,141.299 74.0964,139.941 73.9999,138.59 73.9034,137.246 73.8068,135.909 73.7103,134.579 73.6138,133.256 73.5172,131.94 73.4207,130.631 73.3242,129.33 73.2277,128.035 73.1311,126.747 73.0346,125.467 72.9381,124.193 72.8415,122.927 72.745,121.668 72.6485,120.415 72.5519,119.17 72.4554,117.932 72.3589,116.701 72.2623,115.477 72.1658,114.26 72.0693,113.05 71.9728,111.847 71.8762,110.651 71.7797,109.462 71.6832,108.281 71.5866,107.106 71.4901,105.939 71.3936,104.778 71.297,103.625 71.2005,102.478 71.104,101.339 71.0074,100.207 70.9109,99.0815 70.8144,97.9634 70.7179,96.8523 70.6213,95.7483 70.5248,94.6514 70.4283,93.5615 70.3317,92.4787 70.2352,91.4029 70.1387,90.3343 70.0421,89.2726 69.9456,88.2181 69.8491,87.1706 69.7525,86.1301 69.656,85.0967 69.5595,84.0704 69.463,83.0511 69.3664,82.0389 69.2699,81.0338 69.1734,80.0357 69.0768,79.0447 68.9803,78.0608 68.8838,77.0839 68.7872,76.114 68.6907,75.1513 68.5942,74.1956 68.4976,73.2469 68.4011,72.3053 68.3046,71.3708 68.2081,70.4434 68.1115,69.523 68.015,68.6096 67.9185,67.7033 67.8219,66.8041 67.7254,65.912 67.6289,65.0269 67.5323,64.1489 67.4358,63.2779 67.3393,62.414 67.2427,61.5571 67.1462,60.7073 67.0497,59.8646 66.9532,59.029 66.8566,58.2004 66.7601,57.3788 66.6636,56.5644 66.567,55.7569 66.4705,54.9566 66.374,54.1633 66.2774,53.3771 66.1809,52.5979 66.0844,51.8258 65.9878,51.0607 65.8913,50.3028 65.7948,49.5518 65.6983,48.808 65.6017,48.0712 65.5052,47.3414 65.4087,46.6188 65.3121,45.9031 65.2156,45.1946 65.1191,44.4931 65.0225,43.7987 64.926,43.1113 64.8295,42.431 64.7329,41.7578 64.6364,41.0916 64.5399,40.4324 64.4434,39.7804 64.3468,39.1354 64.2503,38.4974 64.1538,37.8666 64.0572,37.2428 63.9607,36.626 63.8642,36.0163 63.7676,35.4137 63.6711,34.8181 63.5746,34.2296 63.478,33.6482 63.3815,33.0738 63.285,32.5065 63.1885,31.9462 63.0919,31.393 62.9954,30.8469 62.8989,30.3078 62.8023,29.7758 62.7058,29.2508 62.6093,28.7329 62.5127,28.2221 62.4162,27.7183 62.3197,27.2216 62.2231,26.732 62.1266,26.2494 62.0301,25.7739 61.9336,25.3054 61.837,24.844 61.7405,24.3897 61.644,23.9424 61.5474,23.5022 61.4509,23.069 61.3544,22.6429 61.2578,22.2239 61.1613,21.8119 61.0648,21.407 60.9682,21.0092 60.8717,20.6184 60.7752,20.2347 60.6787,19.858 60.5821,19.4884 60.4856,19.1259 60.3891,18.7704 60.2925,18.422 60.196,18.0806 60.0995,17.7463 60.0029,17.4191 59.9064,17.0989 59.8099,16.7858 59.7133,16.4798 59.6168,16.1808 59.5203,15.8889 59.4238,15.604 59.3272,15.3262 59.2307,15.0555 59.1342,14.7918 59.0376,14.5352 58.9411,14.2856 58.8446,14.0431 58.748,13.8077 58.6515,13.5793 58.555,13.358 58.4584,13.1438 58.3619,12.9366 58.2654,12.7365 58.1689,12.5434 58.0723,12.3574 57.9758,12.1785 57.8793,12.0066 57.7827,11.8418 57.6862,11.684 57.5897,11.5333 57.4931,11.3897 57.3966,11.2531 57.3001,11.1236 57.2035,11.0012 57.107,10.8858 57.0105,10.7775 56.914,10.6762 56.8174,10.582 56.7209,10.4949 56.6244,10.4148 56.5278,10.3418 56.4313,10.2758 56.3348,10.2169 56.2382,10.1651 56.1417,10.1203 56.0452,10.0826 55.9486,10.052 55.8521,10.0284 55.7556,10.0119 55.6591,10.0024 55.5625,10 55.466,10.0047 55.3695,10.0164 55.2729,10.0352 55.1764,10.061 55.0799,10.0939 54.9833,10.1339 54.8868,10.1809 54.7903,10.235 54.6937,10.2962 54.5972,10.3644 54.5007,10.4397 54.4042,10.522 54.3076,10.6114 54.2111,10.7079 54.1146,10.8114 54.018,10.922 53.9215,11.0396 53.825,11.1643 53.7284,11.2961 53.6319,11.4349 53.5354,11.5808 53.4388,11.7338 53.3423,11.8938 53.2458,12.0609 53.1493,12.235 53.0527,12.4162 52.9562,12.6045 52.8597,12.7998 52.7631,13.0022 52.6666,13.2116 52.5701,13.4281 52.4735,13.6517 52.377,13.8823 52.2805,14.12 52.1839,14.3648 52.0874,14.6166 51.9909,14.8754 51.8944,15.1414 51.7978,15.4144 51.7013,15.6944 51.6048,15.9816 51.5082,16.2758 51.4117,16.577 51.3152,16.8853 51.2186,17.2007 51.1221,17.5231 51.0256,17.8526 50.929,18.1891 50.8325,18.5328 50.736,18.8834 50.6395,19.2412 50.5429,19.606 50.4464,19.9778 50.3499,20.3568 50.2533,20.7427 50.1568,21.1358 50.0603,21.5359 49.9637,21.9431 49.8672,22.3573 49.7707,22.7786 49.6741,23.2069 49.5776,23.6424 49.4811,24.0848 49.3846,24.5344 49.288,24.991 49.1915,25.4546 49.095,25.9253 48.9984,26.4031 48.9019,26.888 48.8054,27.3799 48.7088,27.8789 48.6123,28.3849 48.5158,28.898 48.4192,29.4181 48.3227,29.9453 48.2262,30.4796 48.1297,31.021 48.0331,31.5694 47.9366,32.1248 47.8401,32.6873 47.7435,33.2569 47.647,33.8336 47.5505,34.4173 47.4539,35.008 47.3574,35.6059 47.2609,36.2108 47.1643,36.8227 47.0678,37.4417 46.9713,38.0678 46.8748,38.7009 46.7782,39.3411 46.6817,39.9884 46.5852,40.6427 46.4886,41.3041 46.3921,41.9726 46.2956,42.6481 46.199,43.3306 46.1025,44.0203 46.006,44.7169 45.9094,45.4207 45.8129,46.1315 45.7164,46.8494 45.6199,47.5743 45.5233,48.3063 45.4268,49.0454 45.3303,49.7915 45.2337,50.5447 45.1372,51.3049 45.0407,52.0722 44.9441,52.8466 44.8476,53.628 44.7511,54.4165 44.6545,55.2121 44.558,56.0147 44.4615,56.8244 44.365,57.6411 44.2684,58.4649 44.1719,59.2958 44.0754,60.1337 43.9788,60.9787 43.8823,61.8307 43.7858,62.6898 43.6892,63.556 43.5927,64.4292 43.4962,65.3095 43.3996,66.1969 43.3031,67.0913 43.2066,67.9928 43.1101,68.9013 43.0135,69.8169 42.917,70.7396 42.8205,71.6693 42.7239,72.6061 42.6274,73.5499 42.5309,74.5008 42.4343,75.4588 42.3378,76.4238 42.2413,77.3959 42.1447,78.3751 42.0482,79.3613 41.9517,80.3545 41.8552,81.3549 41.7586,82.3623 41.6621,83.3767 41.5656,84.3983 41.469,85.4268 41.3725,86.4625 41.276,87.5052 41.1794,88.555 41.0829,89.6118 40.9864,90.6757 40.8898,91.7466 40.7933,92.8246 40.6968,93.9097 40.6003,95.0019 40.5037,96.1011 40.4072,97.2073 40.3107,98.3206 40.2141,99.441 40.1176,100.568 40.0211,101.703 39.9245,102.845 39.828,103.993 39.7315,105.149 39.6349,106.312 39.5384,107.481 39.4419,108.658 39.3454,109.842 39.2488,111.033 39.1523,112.231 39.0558,113.436 38.9592,114.649 38.8627,115.868 38.7662,117.094 38.6696,118.328 38.5731,119.568 38.4766,120.815 38.38,122.07 38.2835,123.332 38.187,124.6 38.0905,125.876 37.9939,127.159 37.8974,128.449 37.8009,129.746 37.7043,131.05 37.6078,132.361 37.5113,133.679 37.4147,135.004 37.3182,136.336 37.2217,137.675 37.1251,139.022 37.0286,140.375 36.9321,141.736 36.8356,143.103 36.739,144.478 36.6425,145.859 36.546,147.248 36.4494,148.644 36.3529,150.047 36.2564,151.457 36.1598,152.874 36.0633,154.298 35.9668,155.729 35.8702,157.167 35.7737,158.612 35.6772,160.064 35.5807,161.524 35.4841,162.99 35.3876,164.464 35.2911,165.944 35.1945,167.432 35.098,168.926 35.0015,170.428 34.9049,171.937 34.8084,173.453 34.7119,174.976 34.6153,176.506 34.5188,178.043 34.4223,179.587 34.3258,181.138 34.2292,182.696 34.1327,184.261 34.0362,185.834 33.9396,187.413 33.8431,188.999 33.7466,190.593 33.65,192.193 33.5535,193.801 33.457,195.416 33.3604,197.037 33.2639,198.666 33.1674,200.302 33.0709,201.945 32.9743,203.595 32.8778,205.252 32.7813,206.916 32.6847,208.587 32.5882,210.266 32.4917,211.951 32.3951,213.643 32.2986,215.343 32.2021,217.049 32.1055,218.763 32.009,220.483 31.9125,222.211 31.816,223.946 31.7194,225.688 31.6229,227.437 31.5264,229.192 31.4298,230.955 31.3333,232.725 31.2368,234.503 31.1402,236.287 31.0437,238.078 30.9472,239.876 30.8506,241.682 30.7541,243.494 30.6576,245.314 30.5611,247.14 30.4645,248.974 30.368,250.814 30.2715,252.662 30.1749,254.517 30.0784,256.379 29.9819,258.248 29.8853,260.124 29.7888,262.007 29.6923,263.897 29.5957,265.794 29.4992,267.698 29.4027,269.609 29.3062,271.528 29.2096,273.453 29.1131,275.385 29.0166,277.325 28.92,279.272 28.8235,281.225 28.727,283.186 28.6304,285.154 28.5339,287.129 28.4374,289.11 28.3408,291.099 28.2443,293.095 28.1478,295.098 28.0513,297.109 27.9547,299.126 27.8582,301.15 27.7617,303.181 27.6651,305.22 27.5686,307.265 27.4721,309.318 27.3755,311.377 27.279,313.444 27.1825,315.518 27.0859,317.598 26.9894,319.686 26.8929,321.781 26.7964,323.883 26.6998,325.992 26.6033,328.108 26.5068,330.231 26.4102,332.361 26.3137,334.499 26.2172,336.643 26.1206,338.794 26.0241,340.953 25.9276,343.118 25.831,345.291 25.7345,347.47 25.638,349.657 25.5415,351.851 25.4449,354.052 25.3484,356.259 25.2519,358.474 25.1553,360.696 25.0588,362.925 24.9623,365.161 24.8657,367.405 24.7692,369.655 24.6727,371.912 24.5761,374.176 24.4796,376.448 24.3831,378.726 24.2866,381.012 24.19,383.304 24.0935,385.604 23.997,387.911 23.9004,390.225 23.8039,392.545 23.7074,394.873 23.6108,397.208 23.5143,399.55 23.4178,401.899 23.3212,404.256 23.2247,406.619 23.1282,408.989 23.0317,411.366 22.9351,413.751 22.8386,416.142 22.7421,418.541 22.6455,420.946 22.549,423.359 22.4525,425.779 22.3559,428.205 22.2594,430.639 22.1629,433.08 22.0663,435.528 21.9698,437.983 21.8733,440.445 21.7768,442.914 21.6802,445.391 21.5837,447.874 21.4872,450.364 21.3906,452.862 21.2941,455.366 21.1976,457.877 21.101,460.396 21.0045,462.922 20.908,465.454 20.8114,467.994 20.7149,470.541 20.6184,473.095 20.5219,475.656 20.4253,478.224 20.3288,480.799 20.2323,483.381 20.1357,485.97 20.0392,488.566 19.9427,491.17 19.8461,493.78 19.7496,496.397 19.6531,499.022 19.5565,501.653 19.46,504.292 19.3635,506.938 19.267,509.59 19.1704,512.25 19.0739,514.917 18.9774,517.591 18.8808,520.272 18.7843,522.96 18.6878,525.655 18.5912,528.357 18.4947,531.067 18.3982,533.783 18.3016,536.506 18.2051,539.237 18.1086,541.974 18.0121,544.719 17.9155,547.47 17.819,550.229 17.7225,552.995 17.6259,555.767 17.5294,558.547 17.4329,561.334 17.3363,564.128 17.2398,566.929 17.1433,569.737 17.0467,572.552 16.9502,575.375 16.8537,578.204 16.7572,581.04 16.6606,583.884 16.5641,586.734 16.4676,589.592 16.371,592.456 16.2745,595.328 16.178,598.207 16.0814,601.092 15.9849,603.985 15.8884,606.885 15.7918,609.792 15.6953,612.706 15.5988,615.627 15.5023,618.555 15.4057,621.49 15.3092,624.433 15.2127,627.382 15.1161,630.338 15.0196,633.302 14.9231,636.272 14.8265,639.25 14.73,642.234 14.6335,645.226 14.5369,648.225 14.4404,651.231 14.3439,654.244 14.2474,657.264 14.1508,660.29 14.0543,663.325 13.9578,666.366 13.8612,669.414 13.7647,672.469 13.6682,675.531 13.5716,678.601 13.4751,681.677 13.3786,684.761 13.282,687.851 13.1855,690.949 13.089,694.054 12.9925,697.165 12.8959,700.284 12.7994,703.41 12.7029,706.543 12.6063,709.683 12.5098,712.83 12.4133,715.984 12.3167,719.145 12.2202,722.313 12.1237,725.489 12.0271,728.671 11.9306,731.86 11.8341,735.057 11.7376,738.26 11.641,741.471 11.5445,744.689 11.448,747.913 11.3514,751.145 11.2549,754.384 11.1584,757.63 11.0618,760.883 10.9653,764.143 10.8688,767.41 10.7722,770.684 10.6757,773.965 10.5792,777.254 10.4827,780.549 10.3861,783.851 10.2896,787.161 10.1931,790.477 10.0965,793.801 10,797.132" fill="none" stroke="Black" stroke-width="1" stroke-linecap="round" stroke-linejoin="round"/>
  <circle cx="18.0362" cy="541.532" r="3" fill="Red"/>
  <circle cx="26.9653" cy="321.281" r="3" fill="Red"/>
  <circle cx="35.8944" cy="160.557" r="3" fill="Red"/>
  <circle cx="44.8235" cy="59.3605" r="3" fill="Red"/>
  <circle cx="53.7526" cy="17.6914" r="3" fill="Red"/>
  <circle cx="62.6817" cy="35.5496" r="3" fill="Red"/>
  <circle cx="71.6108" cy="112.935" r="3" fill="Red"/>
  <circle cx="80.5399" cy="249.848" r="3" fill="Red"/>
  <circle cx="89.469" cy="446.288" r="3" fill="Red"/>
  <circle cx="98.398" cy="702.255" r="3" fill="Red"/>
</svg>