<?xml version="1.0" encoding="UTF-8" ?>
<svg xmlns="http://www.w3.org/2000/svg" version="1.1">
  <polyline points="192.313,990 192.13,986.274 191.948,982.554 191.765,978.842 191.583,975.137 191.4,971.439 191.218,967.748 191.035,964.064 190.853,960.387 190.67,956.718 190.488,953.055 190.305,949.4 190.123,945.752 189.94,942.11 189.758,938.476 189.575,934.849 189.393,931.229 189.21,927.616 189.028,924.011 188.845,920.412 188.663,916.82 188.48,913.236 188.298,909.659 188.115,906.088 187.933,902.525 187.75,898.969 187.568,895.42 187.385,891.878 187.203,888.344 187.02,884.816 186.838,881.295 186.655,877.782 186.473,874.276 186.29,870.776 186.108,867.284 185.925,863.799 185.743,860.321 185.56,856.85 185.378,853.386 185.195,849.93 185.013,846.48 184.831,843.038 184.648,839.602 184.466,836.174 184.283,832.753 184.101,829.339 183.918,825.932 183.736,822.532 183.553,819.139 183.371,815.753 183.188,812.375 183.006,809.003 182.823,805.639 182.641,802.282 182.458,798.931 182.276,795.588 182.093,792.252 181.911,788.923 181.728,785.602 181.546,782.287 181.363,778.979 181.181,775.679 180.998,772.385 180.816,769.099 180.633,765.82 180.451,762.548 180.268,759.283 180.086,756.025 179.903,752.774 179.721,749.53 179.538,746.293 179.356,743.064 179.173,739.842 178.991,736.626 178.808,733.418 178.626,730.217 178.443,727.023 178.261,723.836 178.078,720.656 177.896,717.483 177.713,714.318 177.531,711.159 177.348,708.008 177.166,704.863 176.983,701.726 176.801,698.596 176.618,695.473 176.436,692.357 176.253,689.248 176.071,686.146 175.888,683.051 175.706,679.964 175.523,676.883 175.341,673.81 175.158,670.744 174.976,667.685 174.793,664.633 174.611,661.588 174.428,658.55 174.246,655.519 174.063,652.495 173.881,649.479 173.698,646.469 173.516,643.467 173.333,640.471 173.151,637.483 172.968,634.502 172.786,631.528 172.603,628.561 172.421,625.602 172.238,622.649 172.056,619.703 171.873,616.765 171.691,613.833 171.508,610.909 171.326,607.992 171.143,605.082 170.961,602.179 170.778,599.283 170.596,596.394 170.413,593.512 170.231,590.638 170.048,587.77 169.866,584.91 169.683,582.056 169.501,579.21 169.318,576.371 169.136,573.539 168.953,570.714 168.771,567.896 168.588,565.085 168.406,562.282 168.223,559.485 168.041,556.696 167.858,553.913 167.676,551.138 167.493,548.37 167.311,545.609 167.128,542.855 166.946,540.108 166.763,537.368 166.581,534.636 166.398,531.91 166.216,529.192 166.033,526.48 165.851,523.776 165.668,521.079 165.486,518.389 165.304,515.706 165.121,513.03 164.939,510.361 164.756,507.7 164.574,505.045 164.391,502.398 164.209,499.757 164.026,497.124 163.844,494.498 163.661,491.879 163.479,489.267 163.296,486.662 163.114,484.064 162.931,481.473 162.749,478.89 162.566,476.313 162.384,473.744 162.201,471.182 162.019,468.626 161.836,466.078 161.654,463.537 161.471,461.003 161.289,458.477 161.106,455.957 160.924,453.444 160.741,450.939 160.559,448.44 160.376,445.949 160.194,443.465 160.011,440.988 159.829,438.518 159.646,436.055 159.464,433.599 159.281,431.15 159.099,428.709 158.916,426.274 158.734,423.847 158.551,421.426 158.369,419.013 158.186,416.607 158.004,414.208 157.821,411.816 157.639,409.431 157.456,407.053 157.274,404.683 157.091,402.319 156.909,399.963 156.726,397.613 156.544,395.271 156.361,392.936 156.179,390.608 155.996,388.287 155.814,385.973 155.631,383.666 155.449,381.367 155.266,379.074 155.084,376.789 154.901,374.51 154.719,372.239 154.536,369.975 154.354,367.718 154.171,365.468 153.989,363.225 153.806,360.989 153.624,358.76 153.441,356.539 153.259,354.324 153.076,352.117 152.894,349.917 152.711,347.724 152.529,345.537 152.346,343.358 152.164,341.187 151.981,339.022 151.799,336.864 151.616,334.714 151.434,332.57 151.251,330.434 151.069,328.304 150.886,326.182 150.704,324.067 150.521,321.959 150.339,319.858 150.156,317.764 149.974,315.678 149.791,313.598 149.609,311.525 149.426,309.46 149.244,307.402 149.061,305.35 148.879,303.306 148.696,301.269 148.514,299.239 148.331,297.217 148.149,295.201 147.966,293.192 147.784,291.191 147.601,289.196 147.419,287.209 147.236,285.229 147.054,283.256 146.871,281.289 146.689,279.331 146.506,277.379 146.324,275.434 146.141,273.496 145.959,271.566 145.777,269.642 145.594,267.726 145.412,265.817 145.229,263.915 145.047,262.019 144.864,260.131 144.682,258.251 144.499,256.377 144.317,254.51 144.134,252.651 143.952,250.798 143.769,248.953 143.587,247.115 143.404,245.283 143.222,243.459 143.039,241.642 142.857,239.832 142.674,238.03 142.492,236.234 142.309,234.445 142.127,232.664 141.944,230.889 141.762,229.122 141.579,227.362 141.397,225.609 141.214,223.863 141.032,222.124 140.849,220.392 140.667,218.668 140.484,216.95 140.302,215.239 140.119,213.536 139.937,211.84 139.754,210.15 139.572,208.468 139.389,206.793 139.207,205.125 139.024,203.465 138.842,201.811 138.659,200.164 138.477,198.525 138.294,196.892 138.112,195.267 137.929,193.649 137.747,192.038 137.564,190.434 137.382,188.837 137.199,187.247 137.017,185.664 136.834,184.088 136.652,182.52 136.469,180.958 136.287,179.404 136.104,177.857 135.922,176.317 135.739,174.784 135.557,173.258 135.374,171.739 135.192,170.227 135.009,168.722 134.827,167.225 134.644,165.734 134.462,164.251 134.279,162.775 134.097,161.306 133.914,159.844 133.732,158.389 133.549,156.941 133.367,155.5 133.184,154.066 133.002,152.64 132.819,151.22 132.637,149.808 132.454,148.403 132.272,147.004 132.089,145.613 131.907,144.229 131.724,142.853 131.542,141.483 131.359,140.12 131.177,138.764 130.994,137.416 130.812,136.075 130.629,134.74 130.447,133.413 130.264,132.093 130.082,130.78 129.899,129.474 129.717,128.175 129.534,126.884 129.352,125.599 129.169,124.321 128.987,123.051 128.804,121.788 128.622,120.531 128.439,119.282 128.257,118.04 128.074,116.805 127.892,115.578 127.709,114.357 127.527,113.143 127.344,111.937 127.162,110.737 126.979,109.545 126.797,108.36 126.614,107.182 126.432,106.011 126.25,104.847 126.067,103.69 125.885,102.54 125.702,101.397 125.52,100.262 125.337,99.1334 125.155,98.012 124.972,96.8978 124.79,95.7906 124.607,94.6906 124.425,93.5976 124.242,92.5118 124.06,91.433 123.877,90.3613 123.695,89.2968 123.512,88.2393 123.33,87.189 123.147,86.1457 122.965,85.1095 122.782,84.0804 122.6,83.0585 122.417,82.0436 122.235,81.0358 122.052,80.0351 121.87,79.0416 121.687,78.0551 121.505,77.0757 121.322,76.1034 121.14,75.1382 120.957,74.1801 120.775,73.2291 120.592,72.2852 120.41,71.3485 120.227,70.4188 120.045,69.4962 119.862,68.5807 119.68,67.6723 119.497,66.771 119.315,65.8768 119.132,64.9896 118.95,64.1096 118.767,63.2367 118.585,62.3709 118.402,61.5122 118.22,60.6606 118.037,59.8161 117.855,58.9787 117.672,58.1483 117.49,57.3251 117.307,56.509 117.125,55.7 116.942,54.898 116.76,54.1032 116.577,53.3155 116.395,52.5348 116.212,51.7613 116.03,50.9949 115.847,50.2355 115.665,49.4833 115.482,48.7382 115.3,48.0001 115.117,47.2692 114.935,46.5453 114.752,45.8286 114.57,45.1189 114.387,44.4164 114.205,43.7209 114.022,43.0326 113.84,42.3513 113.657,41.6771 113.475,41.0101 113.292,40.3501 113.11,39.6973 112.927,39.0515 112.745,38.4128 112.562,37.7813 112.38,37.1568 112.197,36.5394 112.015,35.9291 111.832,35.326 111.65,34.7299 111.467,34.1409 111.285,33.559 111.102,32.9842 110.92,32.4166 110.737,31.856 110.555,31.3025 110.372,30.7561 110.19,30.2168 110.007,29.6846 109.825,29.1595 109.642,28.6415 109.46,28.1306 109.277,27.6268 109.095,27.1301 108.912,26.6405 108.73,26.158 108.547,25.6826 108.365,25.2143 108.182,24.7531 108,24.299 107.817,23.852 107.635,23.412 107.452,22.9792 107.27,22.5535 107.088,22.1349 106.905,21.7234 106.723,21.3189 106.54,20.9216 106.358,20.5314 106.175,20.1483 105.993,19.7722 105.81,19.4033 105.628,19.0415 105.445,18.6867 105.263,18.3391 105.08,17.9985 104.898,17.6651 104.715,17.3388 104.533,17.0195 104.35,16.7074 104.168,16.4023 103.985,16.1044 103.803,15.8135 103.62,15.5298 103.438,15.2531 103.255,14.9835 103.073,14.7211 102.89,14.4657 102.708,14.2175 102.525,13.9763 102.343,13.7422 102.16,13.5153 101.978,13.2954 101.795,13.0826 101.613,12.877 101.43,12.6784 101.248,12.4869 101.065,12.3025 100.883,12.1252 100.7,11.9551 100.518,11.792 100.335,11.636 100.153,11.4871 99.9702,11.3453 99.7877,11.2106 99.6052,11.083 99.4227,10.9625 99.2402,10.8491 99.0577,10.7428 98.8752,10.6436 98.6927,10.5515 98.5102,10.4665 98.3277,10.3886 98.1452,10.3178 97.9627,10.2541 97.7802,10.1975 97.5977,10.148 97.4153,10.1056 97.2328,10.0703 97.0503,10.0421 96.8678,10.0209 96.6853,10.0069 96.5028,10 96.3203,10.0002 96.1378,10.0075 95.9553,10.0218 95.7728,10.0433 95.5903,10.0719 95.4078,10.1075 95.2253,10.1503 95.0428,10.2002 94.8603,10.2571 94.6778,10.3212 94.4953,10.3923 94.3128,10.4706 94.1303,10.556 93.9478,10.6484 93.7653,10.748 93.5828,10.8546 93.4004,10.9684 93.2179,11.0892 93.0354,11.2172 92.8529,11.3522 92.6704,11.4943 92.4879,11.6436 92.3054,11.7999 92.1229,11.9634 91.9404,12.1339 91.7579,12.3115 91.5754,12.4963 91.3929,12.6881 91.2104,12.887 91.0279,13.093 90.8454,13.3062 90.6629,13.5264 90.4804,13.7537 90.2979,13.9881 90.1154,14.2296 89.9329,14.4783 89.7504,14.734 89.568,14.9968 89.3855,15.2667 89.203,15.5437 89.0205,15.8278 88.838,16.119 88.6555,16.4173 88.473,16.7227 88.2905,17.0352 88.108,17.3548 87.9255,17.6815 87.743,18.0153 87.5605,18.3562 87.378,18.7042 87.1955,19.0593 87.013,19.4215 86.8305,19.7908 86.648,20.1672 86.4655,20.5506 86.283,20.9412 86.1005,21.3389 85.918,21.7437 85.7356,22.1555 85.5531,22.5745 85.3706,23.0006 85.1881,23.4338 85.0056,23.874 84.8231,24.3214 84.6406,24.7759 84.4581,25.2374 84.2756,25.7061 84.0931,26.1819 83.9106,26.6647 83.7281,27.1547 83.5456,27.6517 83.3631,28.1559 83.1806,28.6671 82.9981,29.1855 82.8156,29.7109 82.6331,30.2435 82.4506,30.7831 82.2681,31.3299 82.0856,31.8837 81.9031,32.4446 81.7207,33.0127 81.5382,33.5878 81.3557,34.17 81.1732,34.7594 80.9907,35.3558 80.8082,35.9593 80.6257,36.57 80.4432,37.1877 80.2607,37.8125 80.0782,38.4444 79.8957,39.0835 79.7132,39.7296 79.5307,40.3828 79.3482,41.0431 79.1657,41.7105 78.9832,42.385 78.8007,43.0666 78.6182,43.7554 78.4357,44.4512 78.2532,45.1541 78.0707,45.8641 77.8883,46.5812 77.7058,47.3054 77.5233,48.0367 77.3408,48.7751 77.1583,49.5206 76.9758,50.2731 76.7933,51.0328 76.6108,51.7996 76.4283,52.5735 76.2458,53.3545 76.0633,54.1426 75.8808,54.9378 75.6983,55.74 75.5158,56.5494 75.3333,57.3659 75.1508,58.1895 74.9683,59.0201 74.7858,59.8579 74.6033,60.7028 74.4208,61.5548 74.2383,62.4138 74.0559,63.28 73.8734,64.1533 73.6909,65.0336 73.5084,65.9211 73.3259,66.8156 73.1434,67.7173 72.9609,68.626 72.7784,69.5419 72.5959,70.4648 72.4134,71.3949 72.2309,72.332 72.0484,73.2763 71.8659,74.2276 71.6834,75.1861 71.5009,76.1516 71.3184,77.1243 71.1359,78.104 70.9534,79.0908 70.7709,80.0848 70.5884,81.0858 70.4059,82.0939 70.2235,83.1091 70.041,84.1315 69.8585,85.1609 69.676,86.1974 69.4935,87.241 69.311,88.2918 69.1285,89.3496 68.946,90.4145 68.7635,91.4865 68.581,92.5656 68.3985,93.6518 68.216,94.7451 68.0335,95.8456 67.851,96.9531 67.6685,98.0677 67.486,99.1894 67.3035,100.318 67.121,101.454 66.9385,102.597 66.756,103.747 66.5735,104.904 66.391,106.069 66.2086,107.24 66.0261,108.419 65.8436,109.604 65.6611,110.797 65.4786,111.997 65.2961,113.203 65.1136,114.417 64.9311,115.639 64.7486,116.867 64.5661,118.102 64.3836,119.344 64.2011,120.594 64.0186,121.85 63.8361,123.114 63.6536,124.385 63.4711,125.663 63.2886,126.948 63.1061,128.24 62.9236,129.539 62.7411,130.845 62.5586,132.158 62.3762,133.479 62.1937,134.806 62.0112,136.141 61.8287,137.483 61.6462,138.832 61.4637,140.188 61.2812,141.551 61.0987,142.921 60.9162,144.298 60.7337,145.682 60.5512,147.074 60.3687,148.472 60.1862,149.878 60.0037,151.291 59.8212,152.711 59.6387,154.138 59.4562,155.572 59.2737,157.013 59.0912,158.461 58.9087,159.916 58.7262,161.379 58.5438,162.848 58.3613,164.325 58.1788,165.808 57.9963,167.299 57.8138,168.797 57.6313,170.302 57.4488,171.814 57.2663,173.334 57.0838,174.86 56.9013,176.393 56.7188,177.934 56.5363,179.481 56.3538,181.036 56.1713,182.598 55.9888,184.167 55.8063,185.743 55.6238,187.326 55.4413,188.916 55.2588,190.513 55.0763,192.118 54.8938,193.729 54.7113,195.348 54.5289,196.973 54.3464,198.606 54.1639,200.246 53.9814,201.893 53.7989,203.547 53.6164,205.208 53.4339,206.877 53.2514,208.552 53.0689,210.234 52.8864,211.924 52.7039,213.621 52.5214,215.324 52.3389,217.035 52.1564,218.753 51.9739,220.478 51.7914,222.21 51.6089,223.95 51.4264,225.696 51.2439,227.449 51.0614,229.21 50.8789,230.978 50.6965,232.752 50.514,234.534 50.3315,236.323 50.149,238.119 49.9665,239.922 49.784,241.733 49.6015,243.55 49.419,245.374 49.2365,247.206 49.054,249.044 48.8715,250.89 48.689,252.743 48.5065,254.603 48.324,256.47 48.1415,258.344 47.959,260.225 47.7765,262.114 47.594,264.009 47.4115,265.912 47.229,267.821 47.0465,269.738 46.8641,271.662 46.6816,273.593 46.4991,275.531 46.3166,277.476 46.1341,279.428 45.9516,281.387 45.7691,283.354 45.5866,285.327 45.4041,287.308 45.2216,289.295 45.0391,291.29 44.8566,293.292 44.6741,295.301 44.4916,297.317 44.3091,299.34 44.1266,301.371 43.9441,303.408 43.7616,305.452 43.5791,307.504 43.3966,309.563 43.2141,311.628 43.0316,313.701 42.8492,315.781 42.6667,317.868 42.4842,319.962 42.3017,322.064 42.1192,324.172 41.9367,326.288 41.7542,328.41 41.5717,330.54 41.3892,332.676 41.2067,334.82 41.0242,336.971 40.8417,339.129 40.6592,341.294 40.4767,343.467 40.2942,345.646 40.1117,347.833 39.9292,350.026 39.7467,352.227 39.5642,354.434 39.3817,356.649 39.1992,358.871 39.0168,361.1 38.8343,363.336 38.6518,365.58 38.4693,367.83 38.2868,370.087 38.1043,372.352 37.9218,374.623 37.7393,376.902 37.5568,379.188 37.3743,381.481 37.1918,383.781 37.0093,386.088 36.8268,388.402 36.6443,390.724 36.4618,393.052 36.2793,395.387 36.0968,397.73 35.9143,400.08 35.7318,402.437 35.5493,404.801 35.3668,407.171 35.1844,409.55 35.0019,411.935 34.8194,414.327 34.6369,416.726 34.4544,419.133 34.2719,421.547 34.0894,423.967 33.9069,426.395 33.7244,428.83 33.5419,431.272 33.3594,433.721 33.1769,436.177 32.9944,438.64 32.8119,441.111 32.6294,443.588 32.4469,446.073 32.2644,448.564 32.0819,451.063 31.8994,453.569 31.7169,456.082 31.5344,458.602 31.352,461.129 31.1695,463.664 30.987,466.205 30.8045,468.753 30.622,471.309 30.4395,473.872 30.257,476.441 30.0745,479.018 29.892,481.602 29.7095,484.193 29.527,486.791 29.3445,489.397 29.162,492.009 28.9795,494.628 28.797,497.255 28.6145,499.888 28.432,502.529 28.2495,505.177 28.067,507.832 27.8845,510.494 27.702,513.163 27.5195,515.839 27.3371,518.523 27.1546,521.213 26.9721,523.911 26.7896,526.615 26.6071,529.327 26.4246,532.046 26.2421,534.772 26.0596,537.505 25.8771,540.245 25.6946,542.992 25.5121,545.746 25.3296,548.508 25.1471,551.276 24.9646,554.052 24.7821,556.834 24.5996,559.624 24.4171,562.421 24.2346,565.225 24.0521,568.036 23.8696,570.854 23.6871,573.68 23.5047,576.512 23.3222,579.352 23.1397,582.198 22.9572,585.052 22.7747,587.913 22.5922,590.78 22.4097,593.655 22.2272,596.537 22.0447,599.427 21.8622,602.323 21.6797,605.226 21.4972,608.137 21.3147,611.054 21.1322,613.979 20.9497,616.911 20.7672,619.85 20.5847,622.796 20.4022,625.749 20.2197,628.709 20.0372,631.676 19.8547,634.65 19.6723,637.632 19.4898,640.62 19.3073,643.616 19.1248,646.619 18.9423,649.629 18.7598,652.646 18.5773,655.67 18.3948,658.701 18.2123,661.739 18.0298,664.784 17.8473,667.837 17.6648,670.896 17.4823,673.963 17.2998,677.037 17.1173,680.117 16.9348,683.205 16.7523,686.3 16.5698,689.402 16.3873,692.512 16.2048,695.628 16.0223,698.751 15.8398,701.882 15.6574,705.02 15.4749,708.164 15.2924,711.316 15.1099,714.475 14.9274,717.641 14.7449,720.814 14.5624,723.994 14.3799,727.182 14.1974,730.376 14.0149,733.577 13.8324,736.786 13.6499,740.002 13.4674,743.224 13.2849,746.454 13.1024,749.691 12.9199,752.935 12.7374,756.187 12.5549,759.445 12.3724,762.71 12.1899,765.983 12.0074,769.262 11.825,772.549 11.6425,775.843 11.46,779.144 11.2775,782.452 11.095,785.767 10.9125,789.089 10.73,792.418 10.5475,795.754 10.365,799.098 10.1825,802.448 10,805.806" fill="none" stroke="Black" stroke-width="1" stroke-linecap="round" stroke-linejoin="round"/>
  <circle cx="25.1927" cy="542.865" r="3" fill="Red"/>
  <circle cx="42.0735" cy="328.008" r="3" fill="Red"/>
  <circle cx="58.9544" cy="171.13" r="3" fill="Red"/>
  <circle cx="75.8352" cy="72.2288" r="3" fill="Red"/>
  <circle cx="92.716" cy="31.3059" r="3" fill="Red"/>
  <circle cx="109.597" cy="48.3609" r="3" fill="Red"/>
  <circle cx="126.478" cy="123.394" r="3" fill="Red"/>
  <circle cx="143.358" cy="256.405" r="3" fill="Red"/>
  <circle cx="160.239" cy="447.393" r="3" fill="Red"/>
  <circle cx="177.12" cy="696.36" r="3" fill="Red"/>
</svg>