<?xml version="1.0" encoding="UTF-8" ?>
<svg xmlns="http://www.w3.org/2000/svg" version="1.1">
  <line x1="10" y1="250" x2="490" y2="250" stroke="Black"/>
  <line x1="250" y1="10" x2="250" y2="490" stroke="Black"/>
  <line x1="10" y1="10" x2="10" y2="490" stroke="Black"/>
  <line x1="490" y1="10" x2="490" y2="490" stroke="Black"/>
  <line x1="10" y1="10" x2="490" y2="10" stroke="Black"/>
  <line x1="10" y1="490" x2="490" y2="490" stroke="Black"/>
  <polyline points="184.536,359.071 184.667,357.555 184.798,356.041 184.929,354.531 185.06,353.024 185.191,351.521 185.322,350.021 185.453,348.524 185.584,347.03 185.715,345.54 185.846,344.053 185.977,342.569 186.108,341.089 186.239,339.612 186.37,338.138 186.501,336.668 186.633,335.201 186.764,333.737 186.895,332.276 187.026,330.819 187.157,329.365 187.288,327.914 187.419,326.467 187.55,325.023 187.681,323.582 187.812,322.145 187.943,320.711 188.074,319.28 188.205,317.852 188.336,316.428 188.467,315.007 188.598,313.59 188.73,312.175 188.861,310.764 188.992,309.357 189.123,307.952 189.254,306.551 189.385,305.153 189.516,303.759 189.647,302.368 189.778,300.98 189.909,299.595 190.04,298.214 190.171,296.836 190.302,295.461 190.433,294.09 190.564,292.722 190.695,291.357 190.826,289.995 190.958,288.637 191.089,287.282 191.22,285.931 191.351,284.583 191.482,283.238 191.613,281.896 191.744,280.558 191.875,279.222 192.006,277.891 192.137,276.562 192.268,275.237 192.399,273.915 192.53,272.597 192.661,271.281 192.792,269.969 192.923,268.661 193.054,267.355 193.186,266.053 193.317,264.755 193.448,263.459 193.579,262.167 193.71,260.878 193.841,259.593 193.972,258.311 194.103,257.032 194.234,255.756 194.365,254.484 194.496,253.215 194.627,251.949 194.758,250.686 194.889,249.427 195.02,248.172 195.151,246.919 195.283,245.67 195.414,244.424 195.545,243.181 195.676,241.942 195.807,240.706 195.938,239.473 196.069,238.244 196.2,237.018 196.331,235.795 196.462,234.576 196.593,233.359 196.724,232.146 196.855,230.937 196.986,229.731 197.117,228.528 197.248,227.328 197.379,226.132 197.511,224.938 197.642,223.749 197.773,222.562 197.904,221.379 198.035,220.199 198.166,219.023 198.297,217.849 198.428,216.679 198.559,215.513 198.69,214.349 198.821,213.189 198.952,212.033 199.083,210.879 199.214,209.729 199.345,208.582 199.476,207.439 199.607,206.298 199.739,205.161 199.87,204.028 200.001,202.897 200.132,201.77 200.263,200.647 200.394,199.526 200.525,198.409 200.656,197.295 200.787,196.185 200.918,195.078 201.049,193.974 201.18,192.873 201.311,191.776 201.442,190.682 201.573,189.591 201.704,188.504 201.835,187.42 201.967,186.339 202.098,185.261 202.229,184.187 202.36,183.116 202.491,182.049 202.622,180.984 202.753,179.923 202.884,178.866 203.015,177.811 203.146,176.76 203.277,175.712 203.408,174.668 203.539,173.627 203.67,172.589 203.801,171.554 203.932,170.523 204.064,169.495 204.195,168.47 204.326,167.449 204.457,166.431 204.588,165.416 204.719,164.405 204.85,163.396 204.981,162.392 205.112,161.39 205.243,160.392 205.374,159.397 205.505,158.405 205.636,157.417 205.767,156.432 205.898,155.45 206.029,154.472 206.16,153.497 206.292,152.525 206.423,151.556 206.554,150.591 206.685,149.629 206.816,148.67 206.947,147.715 207.078,146.763 207.209,145.814 207.34,144.869 207.471,143.927 207.602,142.988 207.733,142.052 207.864,141.12 207.995,140.191 208.126,139.266 208.257,138.343 208.388,137.424 208.52,136.509 208.651,135.596 208.782,134.687 208.913,133.781 209.044,132.879 209.175,131.98 209.306,131.084 209.437,130.191 209.568,129.302 209.699,128.416 209.83,127.533 209.961,126.654 210.092,125.778 210.223,124.905 210.354,124.036 210.485,123.169 210.617,122.307 210.748,121.447 210.879,120.591 211.01,119.738 211.141,118.888 211.272,118.042 211.403,117.199 211.534,116.359 211.665,115.523 211.796,114.689 211.927,113.86 212.058,113.033 212.189,112.21 212.32,111.39 212.451,110.573 212.582,109.76 212.713,108.95 212.845,108.143 212.976,107.34 213.107,106.54 213.238,105.743 213.369,104.949 213.5,104.159 213.631,103.372 213.762,102.588 213.893,101.808 214.024,101.031 214.155,100.257 214.286,99.487 214.417,98.7199 214.548,97.9561 214.679,97.1956 214.81,96.4384 214.941,95.6845 215.073,94.9339 215.204,94.1866 215.335,93.4426 215.466,92.7019 215.597,91.9646 215.728,91.2305 215.859,90.4997 215.99,89.7722 216.121,89.048 216.252,88.3272 216.383,87.6096 216.514,86.8953 216.645,86.1843 216.776,85.4767 216.907,84.7723 217.038,84.0712 217.17,83.3735 217.301,82.679 217.432,81.9879 217.563,81.3 217.694,80.6154 217.825,79.9342 217.956,79.2562 218.087,78.5816 218.218,77.9103 218.349,77.2422 218.48,76.5775 218.611,75.916 218.742,75.2579 218.873,74.6031 219.004,73.9515 219.135,73.3033 219.266,72.6584 219.398,72.0167 219.529,71.3784 219.66,70.7434 219.791,70.1117 219.922,69.4833 220.053,68.8581 220.184,68.2363 220.315,67.6178 220.446,67.0026 220.577,66.3907 220.708,65.7821 220.839,65.1768 220.97,64.5748 221.101,63.9761 221.232,63.3807 221.363,62.7886 221.494,62.1998 221.626,61.6143 221.757,61.0321 221.888,60.4532 222.019,59.8776 222.15,59.3054 222.281,58.7364 222.412,58.1707 222.543,57.6083 222.674,57.0492 222.805,56.4935 222.936,55.941 223.067,55.3918 223.198,54.846 223.329,54.3034 223.46,53.7641 223.591,53.2282 223.722,52.6955 223.854,52.1662 223.985,51.6401 224.116,51.1174 224.247,50.5979 224.378,50.0818 224.509,49.5689 224.64,49.0594 224.771,48.5531 224.902,48.0502 225.033,47.5506 225.164,47.0542 225.295,46.5612 225.426,46.0715 225.557,45.585 225.688,45.1019 225.819,44.6221 225.951,44.1456 226.082,43.6723 226.213,43.2024 226.344,42.7358 226.475,42.2725 226.606,41.8125 226.737,41.3558 226.868,40.9024 226.999,40.4523 227.13,40.0054 227.261,39.5619 227.392,39.1217 227.523,38.6848 227.654,38.2513 227.785,37.821 227.916,37.394 228.047,36.9703 228.179,36.5499 228.31,36.1328 228.441,35.719 228.572,35.3085 228.703,34.9014 228.834,34.4975 228.965,34.0969 229.096,33.6996 229.227,33.3057 229.358,32.915 229.489,32.5276 229.62,32.1436 229.751,31.7628 229.882,31.3853 230.013,31.0112 230.144,30.6403 230.275,30.2728 230.407,29.9085 230.538,29.5476 230.669,29.1899 230.8,28.8356 230.931,28.4845 231.062,28.1368 231.193,27.7924 231.324,27.4512 231.455,27.1134 231.586,26.7789 231.717,26.4476 231.848,26.1197 231.979,25.7951 232.11,25.4737 232.241,25.1557 232.372,24.841 232.504,24.5296 232.635,24.2215 232.766,23.9166 232.897,23.6151 233.028,23.3169 233.159,23.022 233.29,22.7304 233.421,22.4421 233.552,22.1571 233.683,21.8754 233.814,21.597 233.945,21.3219 234.076,21.0501 234.207,20.7816 234.338,20.5164 234.469,20.2545 234.6,19.996 234.732,19.7407 234.863,19.4887 234.994,19.24 235.125,18.9946 235.256,18.7526 235.387,18.5138 235.518,18.2783 235.649,18.0462 235.78,17.8173 235.911,17.5917 236.042,17.3695 236.173,17.1505 236.304,16.9348 236.435,16.7225 236.566,16.5134 236.697,16.3077 236.828,16.1052 236.96,15.9061 237.091,15.7102 237.222,15.5177 237.353,15.3284 237.484,15.1425 237.615,14.9599 237.746,14.7805 237.877,14.6045 238.008,14.4318 238.139,14.2623 238.27,14.0962 238.401,13.9334 238.532,13.7739 238.663,13.6176 238.794,13.4647 238.925,13.3151 239.057,13.1688 239.188,13.0258 239.319,12.8861 239.45,12.7497 239.581,12.6166 239.712,12.4867 239.843,12.3602 239.974,12.237 240.105,12.1171 240.236,12.0006 240.367,11.8873 240.498,11.7773 240.629,11.6706 240.76,11.5672 240.891,11.4671 241.022,11.3703 241.153,11.2768 241.285,11.1867 241.416,11.0998 241.547,11.0162 241.678,10.9359 241.809,10.859 241.94,10.7853 242.071,10.7149 242.202,10.6479 242.333,10.5841 242.464,10.5236 242.595,10.4665 242.726,10.4126 242.857,10.3621 242.988,10.3148 243.119,10.2709 243.25,10.2302 243.381,10.1929 243.513,10.1588 243.644,10.1281 243.775,10.1006 243.906,10.0765 244.037,10.0557 244.168,10.0381 244.299,10.0239 244.43,10.013 244.561,10.0053 244.692,10.001 244.823,10 244.954,10.0023 245.085,10.0079 245.216,10.0167 245.347,10.0289 245.478,10.0444 245.609,10.0632 245.741,10.0853 245.872,10.1107 246.003,10.1394 246.134,10.1714 246.265,10.2067 246.396,10.2453 246.527,10.2872 246.658,10.3324 246.789,10.3809 246.92,10.4327 247.051,10.4878 247.182,10.5462 247.313,10.608 247.444,10.673 247.575,10.7413 247.706,10.8129 247.838,10.8878 247.969,10.9661 248.1,11.0476 248.231,11.1324 248.362,11.2206 248.493,11.312 248.624,11.4067 248.755,11.5048 248.886,11.6061 249.017,11.7108 249.148,11.8187 249.279,11.9299 249.41,12.0445 249.541,12.1623 249.672,12.2835 249.803,12.408 249.934,12.5357 250.066,12.6668 250.197,12.8011 250.328,12.9388 250.459,13.0798 250.59,13.224 250.721,13.3716 250.852,13.5225 250.983,13.6767 251.114,13.8341 251.245,13.9949 251.376,14.159 251.507,14.3264 251.638,14.4971 251.769,14.671 251.9,14.8483 252.031,15.0289 252.162,15.2128 252.294,15.4 252.425,15.5905 252.556,15.7843 252.687,15.9814 252.818,16.1818 252.949,16.3855 253.08,16.5925 253.211,16.8028 253.342,17.0164 253.473,17.2334 253.604,17.4536 253.735,17.6771 253.866,17.9039 253.997,18.134 254.128,18.3675 254.259,18.6042 254.391,18.8442 254.522,19.0875 254.653,19.3342 254.784,19.5841 254.915,19.8373 255.046,20.0939 255.177,20.3537 255.308,20.6169 255.439,20.8833 255.57,21.1531 255.701,21.4261 255.832,21.7025 255.963,21.9821 256.094,22.2651 256.225,22.5513 256.356,22.8409 256.487,23.1338 256.619,23.4299 256.75,23.7294 256.881,24.0322 257.012,24.3382 257.143,24.6476 257.274,24.9603 257.405,25.2762 257.536,25.5955 257.667,25.9181 257.798,26.244 257.929,26.5732 258.06,26.9057 258.191,27.2414 258.322,27.5805 258.453,27.9229 258.584,28.2686 258.715,28.6176 258.847,28.9699 258.978,29.3255 259.109,29.6844 259.24,30.0466 259.371,30.4121 259.502,30.7809 259.633,31.1531 259.764,31.5285 259.895,31.9072 260.026,32.2892 260.157,32.6745 260.288,33.0631 260.419,33.4551 260.55,33.8503 260.681,34.2488 260.812,34.6507 260.943,35.0558 261.075,35.4642 261.206,35.876 261.337,36.291 261.468,36.7093 261.599,37.131 261.73,37.5559 261.861,37.9842 261.992,38.4157 262.123,38.8506 262.254,39.2887 262.385,39.7302 262.516,40.1749 262.647,40.623 262.778,41.0744 262.909,41.529 263.04,41.987 263.172,42.4483 263.303,42.9128 263.434,43.3807 263.565,43.8519 263.696,44.3264 263.827,44.8041 263.958,45.2852 264.089,45.7696 264.22,46.2573 264.351,46.7483 264.482,47.2426 264.613,47.7401 264.744,48.241 264.875,48.7452 265.006,49.2527 265.137,49.7635 265.268,50.2776 265.4,50.795 265.531,51.3157 265.662,51.8397 265.793,52.3671 265.924,52.8977 266.055,53.4316 266.186,53.9688 266.317,54.5093 266.448,55.0531 266.579,55.6003 266.71,56.1507 266.841,56.7044 266.972,57.2614 267.103,57.8218 267.234,58.3854 267.365,58.9523 267.496,59.5226 267.628,60.0961 267.759,60.6729 267.89,61.2531 268.021,61.8365 268.152,62.4233 268.283,63.0133 268.414,63.6067 268.545,64.2033 268.676,64.8033 268.807,65.4065 268.938,66.0131 269.069,66.623 269.2,67.2361 269.331,67.8526 269.462,68.4724 269.593,69.0954 269.725,69.7218 269.856,70.3515 269.987,70.9844 270.118,71.6207 270.249,72.2603 270.38,72.9032 270.511,73.5494 270.642,74.1989 270.773,74.8516 270.904,75.5077 271.035,76.1671 271.166,76.8298 271.297,77.4958 271.428,78.1651 271.559,78.8377 271.69,79.5136 271.821,80.1928 271.953,80.8753 272.084,81.5611 272.215,82.2503 272.346,82.9427 272.477,83.6384 272.608,84.3374 272.739,85.0397 272.87,85.7453 273.001,86.4543 273.132,87.1665 273.263,87.882 273.394,88.6008 273.525,89.323 273.656,90.0484 273.787,90.7772 273.918,91.5092 274.049,92.2445 274.181,92.9832 274.312,93.7251 274.443,94.4704 274.574,95.2189 274.705,95.9708 274.836,96.7259 274.967,97.4844 275.098,98.2461 275.229,99.0112 275.36,99.7795 275.491,100.551 275.622,101.326 275.753,102.104 275.884,102.886 276.015,103.671 276.146,104.459 276.278,105.251 276.409,106.045 276.54,106.843 276.671,107.645 276.802,108.449 276.933,109.257 277.064,110.069 277.195,110.883 277.326,111.701 277.457,112.522 277.588,113.347 277.719,114.175 277.85,115.006 277.981,115.84 278.112,116.678 278.243,117.519 278.374,118.363 278.506,119.211 278.637,120.062 278.768,120.916 278.899,121.773 279.03,122.634 279.161,123.498 279.292,124.366 279.423,125.237 279.554,126.111 279.685,126.988 279.816,127.869 279.947,128.752 280.078,129.64 280.209,130.53 280.34,131.424 280.471,132.321 280.602,133.222 280.734,134.125 280.865,135.032 280.996,135.943 281.127,136.856 281.258,137.773 281.389,138.694 281.52,139.617 281.651,140.544 281.782,141.474 281.913,142.408 282.044,143.345 282.175,144.285 282.306,145.228 282.437,146.175 282.568,147.125 282.699,148.078 282.83,149.034 282.962,149.994 283.093,150.958 283.224,151.924 283.355,152.894 283.486,153.867 283.617,154.843 283.748,155.823 283.879,156.806 284.01,157.792 284.141,158.782 284.272,159.775 284.403,160.771 284.534,161.77 284.665,162.773 284.796,163.779 284.927,164.789 285.059,165.802 285.19,166.818 285.321,167.837 285.452,168.859 285.583,169.885 285.714,170.915 285.845,171.947 285.976,172.983 286.107,174.022 286.238,175.065 286.369,176.11 286.5,177.159 286.631,178.212 286.762,179.267 286.893,180.326 287.024,181.389 287.155,182.454 287.287,183.523 287.418,184.595 287.549,185.671 287.68,186.749 287.811,187.831 287.942,188.917 288.073,190.005 288.204,191.097 288.335,192.193 288.466,193.291 288.597,194.393 288.728,195.498 288.859,196.607 288.99,197.718 289.121,198.834 289.252,199.952 289.383,201.074 289.515,202.199 289.646,203.327 289.777,204.458 289.908,205.593 290.039,206.732 290.17,207.873 290.301,209.018 290.432,210.166 290.563,211.317 290.694,212.472 290.825,213.63 290.956,214.791 291.087,215.956 291.218,217.124 291.349,218.295 291.48,219.47 291.612,220.647 291.743,221.829 291.874,223.013 292.005,224.201 292.136,225.392 292.267,226.586 292.398,227.784 292.529,228.985 292.66,230.189 292.791,231.396 292.922,232.607 293.053,233.821 293.184,235.039 293.315,236.26 293.446,237.484 293.577,238.711 293.708,239.942 293.84,241.176 293.971,242.413 294.102,243.653 294.233,244.897 294.364,246.144 294.495,247.395 294.626,248.649 294.757,249.906 294.888,251.166 295.019,252.43 295.15,253.697 295.281,254.967 295.412,256.241 295.543,257.517 295.674,258.798 295.805,260.081 295.936,261.368 296.068,262.658 296.199,263.951 296.33,265.248 296.461,266.548 296.592,267.851 296.723,269.158 296.854,270.468 296.985,271.781 297.116,273.098 297.247,274.417 297.378,275.741 297.509,277.067 297.64,278.397 297.771,279.73 297.902,281.066 298.033,282.406 298.165,283.749 298.296,285.095 298.427,286.444 298.558,287.797 298.689,289.153 298.82,290.513 298.951,291.875 299.082,293.241 299.213,294.611 299.344,295.983 299.475,297.359 299.606,298.739 299.737,300.121 299.868,301.507 299.999,302.896 300.13,304.289 300.261,305.684 300.393,307.083 300.524,308.486 300.655,309.891 300.786,311.3 300.917,312.713 301.048,314.128 301.179,315.547 301.31,316.969 301.441,318.395 301.572,319.824 301.703,321.256 301.834,322.691 301.965,324.13 302.096,325.572 302.227,327.017 302.358,328.466 302.489,329.917 302.621,331.373 302.752,332.831 302.883,334.293 303.014,335.758 303.145,337.226 303.276,338.698 303.407,340.173 303.538,341.651 303.669,343.133 303.8,344.618 303.931,346.106 304.062,347.598 304.193,349.093 304.324,350.591 304.455,352.092 304.586,353.597 304.717,355.105 304.849,356.616 304.98,358.131 305.111,359.649 305.242,361.17 305.373,362.694 305.504,364.222 305.635,365.753 305.766,367.288 305.897,368.826 306.028,370.367 306.159,371.911 306.29,373.459 306.421,375.01 306.552,376.564 306.683,378.121 306.814,379.682 306.946,381.247 307.077,382.814 307.208,384.385 307.339,385.959 307.47,387.536 307.601,389.117 307.732,390.701 307.863,392.288 307.994,393.879 308.125,395.473 308.256,397.07 308.387,398.67 308.518,400.274 308.649,401.881 308.78,403.491 308.911,405.105 309.042,406.722 309.174,408.342 309.305,409.966 309.436,411.593 309.567,413.223 309.698,414.857 309.829,416.493 309.96,418.134 310.091,419.777 310.222,421.424 310.353,423.074 310.484,424.727 310.615,426.384 310.746,428.044 310.877,429.707 311.008,431.373 311.139,433.043 311.27,434.716 311.402,436.393 311.533,438.072 311.664,439.756 311.795,441.442 311.926,443.132 312.057,444.824 312.188,446.521 312.319,448.22 312.45,449.923 312.581,451.629 312.712,453.339 312.843,455.051 312.974,456.768 313.105,458.487 313.236,460.21 313.367,461.935 313.499,463.665 313.63,465.397 313.761,467.133 313.892,468.872 314.023,470.615 314.154,472.361 314.285,474.11 314.416,475.862 314.547,477.618 314.678,479.377 314.809,481.139 314.94,482.905 315.071,484.674 315.202,486.446 315.333,488.221 315.464,490" fill="none" stroke="Black" stroke-width="1" stroke-linecap="round" stroke-linejoin="round"/>
  <circle cx="195.446" cy="240.436" r="3" fill="Red"/>
  <circle cx="207.569" cy="144.798" r="3" fill="Red"/>
  <circle cx="219.692" cy="76.1011" r="3" fill="Red"/>
  <circle cx="231.815" cy="34.344" r="3" fill="Red"/>
  <circle cx="243.938" cy="19.527" r="3" fill="Red"/>
  <circle cx="256.062" cy="31.65" r="3" fill="Red"/>
  <circle cx="268.185" cy="70.7131" r="3" fill="Red"/>
  <circle cx="280.308" cy="136.716" r="3" fill="Red"/>
  <circle cx="292.431" cy="229.66" r="3" fill="Red"/>
  <circle cx="304.554" cy="349.543" r="3" fill="Red"/>
</svg>