<?xml version="1.0" encoding="UTF-8" ?>
<svg xmlns="http://www.w3.org/2000/svg" version="1.1">
  <polyline points="100.103,990 100.012,986.54 99.9222,983.087 99.832,979.639 99.7418,976.198 99.6516,972.762 99.5614,969.333 99.4712,965.91 99.381,962.493 99.2908,959.082 99.2006,955.677 99.1104,952.279 99.0202,948.886 98.93,945.5 98.8399,942.12 98.7497,938.746 98.6595,935.378 98.5693,932.016 98.4791,928.66 98.3889,925.31 98.2987,921.967 98.2085,918.629 98.1183,915.298 98.0281,911.973 97.9379,908.654 97.8477,905.341 97.7575,902.034 97.6674,898.733 97.5772,895.439 97.487,892.15 97.3968,888.868 97.3066,885.592 97.2164,882.322 97.1262,879.058 97.036,875.8 96.9458,872.548 96.8556,869.302 96.7654,866.063 96.6752,862.829 96.585,859.602 96.4948,856.381 96.4047,853.166 96.3145,849.957 96.2243,846.754 96.1341,843.557 96.0439,840.367 95.9537,837.182 95.8635,834.004 95.7733,830.832 95.6831,827.665 95.5929,824.505 95.5027,821.352 95.4125,818.204 95.3223,815.062 95.2321,811.927 95.142,808.797 95.0518,805.674 94.9616,802.557 94.8714,799.446 94.7812,796.341 94.691,793.242 94.6008,790.149 94.5106,787.063 94.4204,783.982 94.3302,780.908 94.24,777.84 94.1498,774.778 94.0596,771.722 93.9694,768.672 93.8793,765.628 93.7891,762.59 93.6989,759.559 93.6087,756.533 93.5185,753.514 93.4283,750.501 93.3381,747.494 93.2479,744.493 93.1577,741.498 93.0675,738.509 92.9773,735.527 92.8871,732.55 92.7969,729.58 92.7067,726.616 92.6166,723.658 92.5264,720.706 92.4362,717.76 92.346,714.82 92.2558,711.886 92.1656,708.959 92.0754,706.038 91.9852,703.122 91.895,700.213 91.8048,697.31 91.7146,694.413 91.6244,691.522 91.5342,688.638 91.4441,685.759 91.3539,682.887 91.2637,680.02 91.1735,677.16 91.0833,674.306 90.9931,671.458 90.9029,668.616 90.8127,665.78 90.7225,662.951 90.6323,660.127 90.5421,657.31 90.4519,654.499 90.3617,651.693 90.2715,648.894 90.1814,646.101 90.0912,643.315 90.001,640.534 89.9108,637.759 89.8206,634.991 89.7304,632.229 89.6402,629.472 89.55,626.722 89.4598,623.978 89.3696,621.24 89.2794,618.509 89.1892,615.783 89.099,613.064 89.0088,610.35 88.9187,607.643 88.8285,604.942 88.7383,602.247 88.6481,599.558 88.5579,596.875 88.4677,594.198 88.3775,591.528 88.2873,588.863 88.1971,586.205 88.1069,583.553 88.0167,580.907 87.9265,578.267 87.8363,575.633 87.7461,573.005 87.656,570.384 87.5658,567.768 87.4756,565.159 87.3854,562.555 87.2952,559.958 87.205,557.367 87.1148,554.782 87.0246,552.204 86.9344,549.631 86.8442,547.064 86.754,544.504 86.6638,541.95 86.5736,539.401 86.4834,536.859 86.3933,534.323 86.3031,531.793 86.2129,529.27 86.1227,526.752 86.0325,524.241 85.9423,521.735 85.8521,519.236 85.7619,516.743 85.6717,514.256 85.5815,511.775 85.4913,509.3 85.4011,506.831 85.3109,504.369 85.2208,501.913 85.1306,499.462 85.0404,497.018 84.9502,494.58 84.86,492.148 84.7698,489.722 84.6796,487.302 84.5894,484.889 84.4992,482.481 84.409,480.08 84.3188,477.685 84.2286,475.296 84.1384,472.913 84.0482,470.536 83.9581,468.165 83.8679,465.8 83.7777,463.442 83.6875,461.089 83.5973,458.743 83.5071,456.403 83.4169,454.069 83.3267,451.741 83.2365,449.419 83.1463,447.103 83.0561,444.794 82.9659,442.49 82.8757,440.193 82.7855,437.901 82.6954,435.616 82.6052,433.337 82.515,431.064 82.4248,428.798 82.3346,426.537 82.2444,424.282 82.1542,422.034 82.064,419.792 81.9738,417.556 81.8836,415.326 81.7934,413.102 81.7032,410.884 81.613,408.672 81.5228,406.466 81.4327,404.267 81.3425,402.074 81.2523,399.886 81.1621,397.705 81.0719,395.53 80.9817,393.361 80.8915,391.199 80.8013,389.042 80.7111,386.891 80.6209,384.747 80.5307,382.609 80.4405,380.477 80.3503,378.35 80.2602,376.231 80.17,374.117 80.0798,372.009 79.9896,369.907 79.8994,367.812 79.8092,365.723 79.719,363.639 79.6288,361.562 79.5386,359.491 79.4484,357.426 79.3582,355.368 79.268,353.315 79.1778,351.268 79.0876,349.228 78.9975,347.194 78.9073,345.166 78.8171,343.144 78.7269,341.128 78.6367,339.118 78.5465,337.114 78.4563,335.116 78.3661,333.125 78.2759,331.14 78.1857,329.16 78.0955,327.187 78.0053,325.22 77.9151,323.259 77.8249,321.305 77.7348,319.356 77.6446,317.414 77.5544,315.477 77.4642,313.547 77.374,311.623 77.2838,309.705 77.1936,307.793 77.1034,305.887 77.0132,303.987 76.923,302.094 76.8328,300.206 76.7426,298.325 76.6524,296.45 76.5622,294.581 76.4721,292.718 76.3819,290.861 76.2917,289.01 76.2015,287.165 76.1113,285.327 76.0211,283.494 75.9309,281.668 75.8407,279.848 75.7505,278.034 75.6603,276.226 75.5701,274.424 75.4799,272.628 75.3897,270.839 75.2995,269.055 75.2094,267.278 75.1192,265.507 75.029,263.742 74.9388,261.983 74.8486,260.23 74.7584,258.483 74.6682,256.743 74.578,255.008 74.4878,253.28 74.3976,251.557 74.3074,249.841 74.2172,248.131 74.127,246.427 74.0369,244.73 73.9467,243.038 73.8565,241.352 73.7663,239.673 73.6761,238 73.5859,236.332 73.4957,234.671 73.4055,233.016 73.3153,231.367 73.2251,229.725 73.1349,228.088 73.0447,226.458 72.9545,224.833 72.8643,223.215 72.7742,221.603 72.684,219.997 72.5938,218.397 72.5036,216.803 72.4134,215.215 72.3232,213.634 72.233,212.058 72.1428,210.489 72.0526,208.926 71.9624,207.369 71.8722,205.818 71.782,204.273 71.6918,202.734 71.6016,201.202 71.5115,199.675 71.4213,198.155 71.3311,196.64 71.2409,195.132 71.1507,193.63 71.0605,192.134 70.9703,190.645 70.8801,189.161 70.7899,187.683 70.6997,186.212 70.6095,184.747 70.5193,183.287 70.4291,181.834 70.3389,180.387 70.2488,178.946 70.1586,177.512 70.0684,176.083 69.9782,174.661 69.888,173.244 69.7978,171.834 69.7076,170.43 69.6174,169.032 69.5272,167.64 69.437,166.254 69.3468,164.875 69.2566,163.501 69.1664,162.134 69.0762,160.772 68.9861,159.417 68.8959,158.068 68.8057,156.725 68.7155,155.388 68.6253,154.057 68.5351,152.733 68.4449,151.414 68.3547,150.102 68.2645,148.796 68.1743,147.496 68.0841,146.202 67.9939,144.914 67.9037,143.632 67.8136,142.356 67.7234,141.087 67.6332,139.823 67.543,138.566 67.4528,137.315 67.3626,136.07 67.2724,134.831 67.1822,133.598 67.092,132.371 67.0018,131.151 66.9116,129.936 66.8214,128.728 66.7312,127.526 66.641,126.329 66.5509,125.139 66.4607,123.956 66.3705,122.778 66.2803,121.606 66.1901,120.441 66.0999,119.281 66.0097,118.128 65.9195,116.981 65.8293,115.84 65.7391,114.705 65.6489,113.576 65.5587,112.453 65.4685,111.337 65.3783,110.226 65.2882,109.122 65.198,108.024 65.1078,106.931 65.0176,105.845 64.9274,104.766 64.8372,103.692 64.747,102.624 64.6568,101.563 64.5666,100.507 64.4764,99.4579 64.3862,98.4147 64.296,97.3777 64.2058,96.3467 64.1156,95.3219 64.0255,94.3032 63.9353,93.2906 63.8451,92.2841 63.7549,91.2838 63.6647,90.2896 63.5745,89.3014 63.4843,88.3195 63.3941,87.3436 63.3039,86.3738 63.2137,85.4102 63.1235,84.4527 63.0333,83.5012 62.9431,82.556 62.853,81.6168 62.7628,80.6837 62.6726,79.7568 62.5824,78.836 62.4922,77.9213 62.402,77.0127 62.3118,76.1103 62.2216,75.2139 62.1314,74.3237 62.0412,73.4396 61.951,72.5616 61.8608,71.6897 61.7706,70.824 61.6804,69.9643 61.5903,69.1108 61.5001,68.2634 61.4099,67.4221 61.3197,66.587 61.2295,65.7579 61.1393,64.935 61.0491,64.1182 60.9589,63.3075 60.8687,62.5029 60.7785,61.7045 60.6883,60.9121 60.5981,60.1259 60.5079,59.3458 60.4177,58.5718 60.3276,57.804 60.2374,57.0422 60.1472,56.2866 60.057,55.5371 59.9668,54.7937 59.8766,54.0564 59.7864,53.3253 59.6962,52.6002 59.606,51.8813 59.5158,51.1685 59.4256,50.4618 59.3354,49.7612 59.2452,49.0668 59.155,48.3785 59.0649,47.6962 58.9747,47.0201 58.8845,46.3502 58.7943,45.6863 58.7041,45.0286 58.6139,44.3769 58.5237,43.7314 58.4335,43.0921 58.3433,42.4588 58.2531,41.8316 58.1629,41.2106 58.0727,40.5957 57.9825,39.9869 57.8923,39.3842 57.8022,38.7876 57.712,38.1972 57.6218,37.6129 57.5316,37.0347 57.4414,36.4626 57.3512,35.8966 57.261,35.3368 57.1708,34.783 57.0806,34.2354 56.9904,33.6939 56.9002,33.1585 56.81,32.6293 56.7198,32.1061 56.6297,31.5891 56.5395,31.0782 56.4493,30.5734 56.3591,30.0747 56.2689,29.5822 56.1787,29.0957 56.0885,28.6154 55.9983,28.1412 55.9081,27.6731 55.8179,27.2111 55.7277,26.7553 55.6375,26.3056 55.5473,25.862 55.4571,25.4245 55.367,24.9931 55.2768,24.5678 55.1866,24.1487 55.0964,23.7357 55.0062,23.3288 54.916,22.928 54.8258,22.5333 54.7356,22.1448 54.6454,21.7623 54.5552,21.386 54.465,21.0158 54.3748,20.6517 54.2846,20.2938 54.1944,19.9419 54.1043,19.5962 54.0141,19.2566 53.9239,18.9231 53.8337,18.5958 53.7435,18.2745 53.6533,17.9594 53.5631,17.6504 53.4729,17.3475 53.3827,17.0507 53.2925,16.76 53.2023,16.4755 53.1121,16.197 53.0219,15.9247 52.9317,15.6585 52.8416,15.3985 52.7514,15.1445 52.6612,14.8967 52.571,14.655 52.4808,14.4194 52.3906,14.1899 52.3004,13.9665 52.2102,13.7493 52.12,13.5381 52.0298,13.3331 51.9396,13.1342 51.8494,12.9415 51.7592,12.7548 51.669,12.5743 51.5789,12.3999 51.4887,12.2316 51.3985,12.0694 51.3083,11.9133 51.2181,11.7634 51.1279,11.6195 51.0377,11.4818 50.9475,11.3502 50.8573,11.2247 50.7671,11.1054 50.6769,10.9921 50.5867,10.885 50.4965,10.784 50.4064,10.6891 50.3162,10.6004 50.226,10.5177 50.1358,10.4412 50.0456,10.3708 49.9554,10.3065 49.8652,10.2483 49.775,10.1962 49.6848,10.1503 49.5946,10.1105 49.5044,10.0768 49.4142,10.0492 49.324,10.0277 49.2338,10.0124 49.1437,10.0031 49.0535,10 48.9633,10.003 48.8731,10.0121 48.7829,10.0274 48.6927,10.0487 48.6025,10.0762 48.5123,10.1098 48.4221,10.1495 48.3319,10.1953 48.2417,10.2473 48.1515,10.3053 48.0613,10.3695 47.9711,10.4398 47.881,10.5162 47.7908,10.5988 47.7006,10.6874 47.6104,10.7822 47.5202,10.8831 47.43,10.9901 47.3398,11.1032 47.2496,11.2225 47.1594,11.3478 47.0692,11.4793 46.979,11.6169 46.8888,11.7606 46.7986,11.9104 46.7084,12.0664 46.6183,12.2285 46.5281,12.3966 46.4379,12.571 46.3477,12.7514 46.2575,12.9379 46.1673,13.1306 46.0771,13.3294 45.9869,13.5343 45.8967,13.7453 45.8065,13.9624 45.7163,14.1856 45.6261,14.415 45.5359,14.6505 45.4457,14.8921 45.3556,15.1398 45.2654,15.3937 45.1752,15.6536 45.085,15.9197 44.9948,16.1919 44.9046,16.4702 44.8144,16.7546 44.7242,17.0452 44.634,17.3418 44.5438,17.6446 44.4536,17.9535 44.3634,18.2685 44.2732,18.5897 44.1831,18.9169 44.0929,19.2503 44.0027,19.5898 43.9125,19.9354 43.8223,20.2871 43.7321,20.645 43.6419,21.0089 43.5517,21.379 43.4615,21.7552 43.3713,22.1375 43.2811,22.526 43.1909,22.9205 43.1007,23.3212 43.0105,23.728 42.9204,24.1409 42.8302,24.5599 42.74,24.9851 42.6498,25.4163 42.5596,25.8537 42.4694,26.2972 42.3792,26.7468 42.289,27.2026 42.1988,27.6644 42.1086,28.1324 42.0184,28.6065 41.9282,29.0867 41.838,29.573 41.7478,30.0654 41.6577,30.564 41.5675,31.0687 41.4773,31.5795 41.3871,32.0964 41.2969,32.6194 41.2067,33.1486 41.1165,33.6838 41.0263,34.2252 40.9361,34.7727 40.8459,35.3263 40.7557,35.8861 40.6655,36.4519 40.5753,37.0239 40.4851,37.602 40.395,38.1862 40.3048,38.7765 40.2146,39.373 40.1244,39.9755 40.0342,40.5842 39.944,41.199 39.8538,41.8199 39.7636,42.447 39.6734,43.0801 39.5832,43.7194 39.493,44.3648 39.4028,45.0163 39.3126,45.6739 39.2225,46.3377 39.1323,47.0075 39.0421,47.6835 38.9519,48.3656 38.8617,49.0538 38.7715,49.7482 38.6813,50.4486 38.5911,51.1552 38.5009,51.8679 38.4107,52.5867 38.3205,53.3116 38.2303,54.0427 38.1401,54.7798 38.0499,55.5231 37.9598,56.2725 37.8696,57.028 37.7794,57.7896 37.6892,58.5574 37.599,59.3313 37.5088,60.1112 37.4186,60.8974 37.3284,61.6896 37.2382,62.4879 37.148,63.2924 37.0578,64.103 36.9676,64.9196 36.8774,65.7425 36.7872,66.5714 36.6971,67.4064 36.6069,68.2476 36.5167,69.0949 36.4265,69.9483 36.3363,70.8078 36.2461,71.6734 36.1559,72.5452 36.0657,73.4231 35.9755,74.3071 35.8853,75.1972 35.7951,76.0934 35.7049,76.9958 35.6147,77.9042 35.5245,78.8188 35.4344,79.7395 35.3442,80.6663 35.254,81.5993 35.1638,82.5383 35.0736,83.4835 34.9834,84.4348 34.8932,85.3922 34.803,86.3557 34.7128,87.3254 34.6226,88.3011 34.5324,89.283 34.4422,90.271 34.352,91.2651 34.2618,92.2653 34.1717,93.2717 34.0815,94.2842 33.9913,95.3028 33.9011,96.3275 33.8109,97.3583 33.7207,98.3952 33.6305,99.4383 33.5403,100.487 33.4501,101.543 33.3599,102.604 33.2697,103.672 33.1795,104.745 33.0893,105.825 32.9992,106.911 32.909,108.003 32.8188,109.101 32.7286,110.205 32.6384,111.316 32.5482,112.432 32.458,113.555 32.3678,114.684 32.2776,115.818 32.1874,116.959 32.0972,118.106 32.007,119.26 31.9168,120.419 31.8266,121.584 31.7365,122.756 31.6463,123.933 31.5561,125.117 31.4659,126.307 31.3757,127.503 31.2855,128.705 31.1953,129.914 31.1051,131.128 31.0149,132.348 30.9247,133.575 30.8345,134.808 30.7443,136.047 30.6541,137.291 30.5639,138.543 30.4738,139.8 30.3836,141.063 30.2934,142.332 30.2032,143.608 30.113,144.89 30.0228,146.177 29.9326,147.471 29.8424,148.771 29.7522,150.077 29.662,151.39 29.5718,152.708 29.4816,154.033 29.3914,155.363 29.3012,156.7 29.2111,158.043 29.1209,159.392 29.0307,160.747 28.9405,162.108 28.8503,163.475 28.7601,164.849 28.6699,166.228 28.5797,167.614 28.4895,169.006 28.3993,170.404 28.3091,171.808 28.2189,173.218 28.1287,174.634 28.0385,176.056 27.9484,177.485 27.8582,178.92 27.768,180.36 27.6778,181.807 27.5876,183.26 27.4974,184.719 27.4072,186.184 27.317,187.656 27.2268,189.133 27.1366,190.617 27.0464,192.106 26.9562,193.602 26.866,195.104 26.7759,196.612 26.6857,198.126 26.5955,199.647 26.5053,201.173 26.4151,202.705 26.3249,204.244 26.2347,205.789 26.1445,207.34 26.0543,208.897 25.9641,210.46 25.8739,212.029 25.7837,213.604 25.6935,215.186 25.6033,216.773 25.5132,218.367 25.423,219.967 25.3328,221.573 25.2426,223.185 25.1524,224.803 25.0622,226.427 24.972,228.057 24.8818,229.694 24.7916,231.337 24.7014,232.985 24.6112,234.64 24.521,236.301 24.4308,237.968 24.3406,239.641 24.2505,241.321 24.1603,243.006 24.0701,244.698 23.9799,246.395 23.8897,248.099 23.7995,249.809 23.7093,251.525 23.6191,253.247 23.5289,254.976 23.4387,256.71 23.3485,258.451 23.2583,260.197 23.1681,261.95 23.0779,263.709 22.9878,265.474 22.8976,267.245 22.8074,269.022 22.7172,270.805 22.627,272.595 22.5368,274.39 22.4466,276.192 22.3564,278 22.2662,279.814 22.176,281.634 22.0858,283.46 21.9956,285.292 21.9054,287.131 21.8152,288.975 21.7251,290.826 21.6349,292.683 21.5447,294.546 21.4545,296.415 21.3643,298.29 21.2741,300.171 21.1839,302.058 21.0937,303.952 21.0035,305.851 20.9133,307.757 20.8231,309.669 20.7329,311.587 20.6427,313.511 20.5526,315.441 20.4624,317.377 20.3722,319.32 20.282,321.268 20.1918,323.223 20.1016,325.184 20.0114,327.15 19.9212,329.123 19.831,331.103 19.7408,333.088 19.6506,335.079 19.5604,337.077 19.4702,339.08 19.38,341.09 19.2899,343.106 19.1997,345.128 19.1095,347.156 19.0193,349.19 18.9291,351.23 18.8389,353.277 18.7487,355.329 18.6585,357.388 18.5683,359.453 18.4781,361.523 18.3879,363.6 18.2977,365.684 18.2075,367.773 18.1173,369.868 18.0272,371.97 17.937,374.077 17.8468,376.191 17.7566,378.311 17.6664,380.437 17.5762,382.569 17.486,384.707 17.3958,386.851 17.3056,389.002 17.2154,391.158 17.1252,393.321 17.035,395.49 16.9448,397.664 16.8546,399.845 16.7645,402.033 16.6743,404.226 16.5841,406.425 16.4939,408.631 16.4037,410.842 16.3135,413.06 16.2233,415.284 16.1331,417.514 16.0429,419.75 15.9527,421.992 15.8625,424.24 15.7723,426.495 15.6821,428.755 15.592,431.022 15.5018,433.295 15.4116,435.574 15.3214,437.859 15.2312,440.15 15.141,442.447 15.0508,444.75 14.9606,447.06 14.8704,449.375 14.7802,451.697 14.69,454.025 14.5998,456.359 14.5096,458.699 14.4194,461.045 14.3293,463.398 14.2391,465.756 14.1489,468.121 14.0587,470.491 13.9685,472.868 13.8783,475.251 13.7881,477.64 13.6979,480.035 13.6077,482.436 13.5175,484.844 13.4273,487.257 13.3371,489.677 13.2469,492.102 13.1567,494.534 13.0666,496.972 12.9764,499.416 12.8862,501.867 12.796,504.323 12.7058,506.785 12.6156,509.254 12.5254,511.729 12.4352,514.209 12.345,516.696 12.2548,519.189 12.1646,521.688 12.0744,524.194 11.9842,526.705 11.894,529.223 11.8039,531.746 11.7137,534.276 11.6235,536.812 11.5333,539.354 11.4431,541.902 11.3529,544.456 11.2627,547.016 11.1725,549.583 11.0823,552.155 10.9921,554.734 10.9019,557.319 10.8117,559.91 10.7215,562.507 10.6313,565.11 10.5412,567.719 10.451,570.335 10.3608,572.956 10.2706,575.584 10.1804,578.217 10.0902,580.857 10,583.503" fill="none" stroke="Black" stroke-width="1" stroke-linecap="round" stroke-linejoin="round"/>
  <circle cx="17.5085" cy="381.639" r="3" fill="Red"/>
  <circle cx="25.8514" cy="213.508" r="3" fill="Red"/>
  <circle cx="34.1942" cy="96.8189" r="3" fill="Red"/>
  <circle cx="42.537" cy="31.5726" r="3" fill="Red"/>
  <circle cx="50.8799" cy="17.7687" r="3" fill="Red"/>
  <circle cx="59.2227" cy="55.4073" r="3" fill="Red"/>
  <circle cx="67.5655" cy="144.488" r="3" fill="Red"/>
  <circle cx="75.9084" cy="285.012" r="3" fill="Red"/>
  <circle cx="84.2512" cy="476.978" r="3" fill="Red"/>
  <circle cx="92.594" cy="720.386" r="3" fill="Red"/>
</svg>