<?xml version="1.0" encoding="UTF-8" ?>
<svg xmlns="http://www.w3.org/2000/svg" version="1.1">
  <polyline points="111.64,990 111.539,986.184 111.437,982.376 111.335,978.575 111.233,974.782 111.132,970.996 111.03,967.218 110.928,963.447 110.826,959.683 110.725,955.927 110.623,952.178 110.521,948.437 110.419,944.703 110.318,940.977 110.216,937.258 110.114,933.546 110.012,929.842 109.911,926.146 109.809,922.457 109.707,918.775 109.606,915.101 109.504,911.434 109.402,907.774 109.3,904.122 109.199,900.478 109.097,896.841 108.995,893.211 108.893,889.589 108.792,885.974 108.69,882.367 108.588,878.767 108.486,875.175 108.385,871.59 108.283,868.012 108.181,864.442 108.079,860.88 107.978,857.325 107.876,853.777 107.774,850.237 107.672,846.704 107.571,843.178 107.469,839.66 107.367,836.15 107.265,832.647 107.164,829.151 107.062,825.663 106.96,822.182 106.858,818.709 106.757,815.243 106.655,811.785 106.553,808.334 106.451,804.89 106.35,801.454 106.248,798.025 106.146,794.604 106.045,791.19 105.943,787.784 105.841,784.385 105.739,780.994 105.638,777.61 105.536,774.233 105.434,770.864 105.332,767.502 105.231,764.148 105.129,760.801 105.027,757.462 104.925,754.13 104.824,750.806 104.722,747.489 104.62,744.179 104.518,740.877 104.417,737.582 104.315,734.295 104.213,731.015 104.111,727.743 104.01,724.478 103.908,721.22 103.806,717.97 103.704,714.728 103.603,711.493 103.501,708.265 103.399,705.045 103.297,701.832 103.196,698.627 103.094,695.429 102.992,692.238 102.891,689.055 102.789,685.879 102.687,682.711 102.585,679.551 102.484,676.397 102.382,673.252 102.28,670.113 102.178,666.982 102.077,663.859 101.975,660.743 101.873,657.634 101.771,654.533 101.67,651.439 101.568,648.353 101.466,645.274 101.364,642.203 101.263,639.139 101.161,636.082 101.059,633.033 100.957,629.991 100.856,626.957 100.754,623.93 100.652,620.911 100.55,617.899 100.449,614.895 100.347,611.898 100.245,608.908 100.143,605.926 100.042,602.952 99.94,599.984 99.8383,597.025 99.7365,594.072 99.6348,591.128 99.533,588.19 99.4313,585.26 99.3296,582.338 99.2278,579.422 99.1261,576.515 99.0243,573.615 98.9226,570.722 98.8208,567.836 98.7191,564.959 98.6174,562.088 98.5156,559.225 98.4139,556.37 98.3121,553.521 98.2104,550.681 98.1086,547.848 98.0069,545.022 97.9052,542.203 97.8034,539.392 97.7017,536.589 97.5999,533.793 97.4982,531.004 97.3965,528.223 97.2947,525.45 97.193,522.683 97.0912,519.925 96.9895,517.173 96.8877,514.429 96.786,511.693 96.6843,508.964 96.5825,506.242 96.4808,503.528 96.379,500.821 96.2773,498.122 96.1755,495.43 96.0738,492.746 95.9721,490.069 95.8703,487.399 95.7686,484.737 95.6668,482.083 95.5651,479.436 95.4634,476.796 95.3616,474.164 95.2599,471.539 95.1581,468.921 95.0564,466.311 94.9546,463.709 94.8529,461.114 94.7512,458.526 94.6494,455.946 94.5477,453.373 94.4459,450.808 94.3442,448.25 94.2424,445.7 94.1407,443.157 94.039,440.621 93.9372,438.093 93.8355,435.573 93.7337,433.059 93.632,430.554 93.5303,428.055 93.4285,425.564 93.3268,423.081 93.225,420.605 93.1233,418.136 93.0215,415.675 92.9198,413.222 92.8181,410.776 92.7163,408.337 92.6146,405.905 92.5128,403.482 92.4111,401.065 92.3093,398.656 92.2076,396.255 92.1059,393.86 92.0041,391.474 91.9024,389.095 91.8006,386.723 91.6989,384.358 91.5972,382.002 91.4954,379.652 91.3937,377.31 91.2919,374.976 91.1902,372.648 91.0884,370.329 90.9867,368.016 90.885,365.712 90.7832,363.414 90.6815,361.124 90.5797,358.842 90.478,356.567 90.3762,354.299 90.2745,352.039 90.1728,349.786 90.071,347.541 89.9693,345.303 89.8675,343.073 89.7658,340.85 89.6641,338.635 89.5623,336.427 89.4606,334.226 89.3588,332.033 89.2571,329.847 89.1553,327.669 89.0536,325.498 88.9519,323.335 88.8501,321.179 88.7484,319.03 88.6466,316.889 88.5449,314.756 88.4431,312.629 88.3414,310.511 88.2397,308.399 88.1379,306.295 88.0362,304.199 87.9344,302.11 87.8327,300.029 87.731,297.955 87.6292,295.888 87.5275,293.829 87.4257,291.777 87.324,289.733 87.2222,287.696 87.1205,285.666 87.0188,283.644 86.917,281.63 86.8153,279.623 86.7135,277.623 86.6118,275.631 86.51,273.646 86.4083,271.669 86.3066,269.699 86.2048,267.737 86.1031,265.782 86.0013,263.834 85.8996,261.894 85.7979,259.961 85.6961,258.036 85.5944,256.118 85.4926,254.208 85.3909,252.305 85.2891,250.41 85.1874,248.522 85.0857,246.641 84.9839,244.768 84.8822,242.902 84.7804,241.044 84.6787,239.193 84.5769,237.35 84.4752,235.514 84.3735,233.686 84.2717,231.865 84.17,230.051 84.0682,228.245 83.9665,226.446 83.8648,224.655 83.763,222.871 83.6613,221.095 83.5595,219.326 83.4578,217.564 83.356,215.81 83.2543,214.064 83.1526,212.325 83.0508,210.593 82.9491,208.869 82.8473,207.152 82.7456,205.442 82.6438,203.74 82.5421,202.046 82.4404,200.359 82.3386,198.679 82.2369,197.007 82.1351,195.342 82.0334,193.685 81.9317,192.035 81.8299,190.393 81.7282,188.758 81.6264,187.13 81.5247,185.51 81.4229,183.898 81.3212,182.293 81.2195,180.695 81.1177,179.105 81.016,177.522 80.9142,175.946 80.8125,174.378 80.7107,172.818 80.609,171.265 80.5073,169.719 80.4055,168.181 80.3038,166.65 80.202,165.127 80.1003,163.611 79.9986,162.103 79.8968,160.602 79.7951,159.108 79.6933,157.622 79.5916,156.143 79.4898,154.672 79.3881,153.208 79.2864,151.752 79.1846,150.303 79.0829,148.862 78.9811,147.428 78.8794,146.001 78.7776,144.582 78.6759,143.17 78.5742,141.766 78.4724,140.369 78.3707,138.98 78.2689,137.598 78.1672,136.224 78.0655,134.857 77.9637,133.497 77.862,132.145 77.7602,130.8 77.6585,129.463 77.5567,128.133 77.455,126.811 77.3533,125.496 77.2515,124.189 77.1498,122.889 77.048,121.596 76.9463,120.311 76.8445,119.033 76.7428,117.763 76.6411,116.5 76.5393,115.245 76.4376,113.997 76.3358,112.756 76.2341,111.523 76.1324,110.298 76.0306,109.079 75.9289,107.869 75.8271,106.665 75.7254,105.47 75.6236,104.281 75.5219,103.1 75.4202,101.927 75.3184,100.761 75.2167,99.6021 75.1149,98.451 75.0132,97.3072 74.9115,96.171 74.8097,95.0421 74.708,93.9207 74.6062,92.8068 74.5045,91.7003 74.4027,90.6012 74.301,89.5096 74.1993,88.4254 74.0975,87.3486 73.9958,86.2793 73.894,85.2175 73.7923,84.1631 73.6905,83.1161 73.5888,82.0765 73.4871,81.0445 73.3853,80.0198 73.2836,79.0026 73.1818,77.9929 73.0801,76.9905 72.9784,75.9957 72.8766,75.0082 72.7749,74.0283 72.6731,73.0557 72.5714,72.0906 72.4696,71.133 72.3679,70.1827 72.2662,69.24 72.1644,68.3046 72.0627,67.3767 71.9609,66.4563 71.8592,65.5433 71.7574,64.6377 71.6557,63.7396 71.554,62.8489 71.4522,61.9657 71.3505,61.0899 71.2487,60.2216 71.147,59.3607 71.0453,58.5072 70.9435,57.6612 70.8418,56.8226 70.74,55.9915 70.6383,55.1678 70.5365,54.3516 70.4348,53.5428 70.3331,52.7414 70.2313,51.9475 70.1296,51.161 70.0278,50.382 69.9261,49.6104 69.8243,48.8462 69.7226,48.0895 69.6209,47.3403 69.5191,46.5984 69.4174,45.8641 69.3156,45.1371 69.2139,44.4176 69.1122,43.7056 69.0104,43.001 68.9087,42.3038 68.8069,41.6141 68.7052,40.9318 68.6034,40.257 68.5017,39.5896 68.4,38.9297 68.2982,38.2772 68.1965,37.6321 68.0947,36.9945 67.993,36.3643 67.8912,35.7416 67.7895,35.1263 67.6878,34.5184 67.586,33.918 67.4843,33.325 67.3825,32.7395 67.2808,32.1614 67.1791,31.5908 67.0773,31.0276 66.9756,30.4719 66.8738,29.9236 66.7721,29.3827 66.6703,28.8493 66.5686,28.3233 66.4669,27.8048 66.3651,27.2937 66.2634,26.79 66.1616,26.2938 66.0599,25.805 65.9581,25.3237 65.8564,24.8498 65.7547,24.3834 65.6529,23.9244 65.5512,23.4729 65.4494,23.0287 65.3477,22.5921 65.246,22.1629 65.1442,21.7411 65.0425,21.3267 64.9407,20.9198 64.839,20.5204 64.7372,20.1284 64.6355,19.7438 64.5338,19.3667 64.432,18.997 64.3303,18.6348 64.2285,18.28 64.1268,17.9326 64.025,17.5927 63.9233,17.2602 63.8216,16.9352 63.7198,16.6176 63.6181,16.3075 63.5163,16.0048 63.4146,15.7095 63.3129,15.4217 63.2111,15.1414 63.1094,14.8684 63.0076,14.603 62.9059,14.3449 62.8041,14.0943 62.7024,13.8512 62.6007,13.6155 62.4989,13.3872 62.3972,13.1664 62.2954,12.953 62.1937,12.747 62.0919,12.5485 61.9902,12.3575 61.8885,12.1739 61.7867,11.9977 61.685,11.829 61.5832,11.6677 61.4815,11.5138 61.3798,11.3675 61.278,11.2285 61.1763,11.097 61.0745,10.9729 60.9728,10.8563 60.871,10.7471 60.7693,10.6454 60.6676,10.5511 60.5658,10.4642 60.4641,10.3848 60.3623,10.3128 60.2606,10.2483 60.1588,10.1912 60.0571,10.1416 59.9554,10.0994 59.8536,10.0646 59.7519,10.0373 59.6501,10.0174 59.5484,10.005 59.4467,10 59.3449,10.0025 59.2432,10.0124 59.1414,10.0297 59.0397,10.0545 58.9379,10.0867 58.8362,10.1264 58.7345,10.1735 58.6327,10.228 58.531,10.29 58.4292,10.3595 58.3275,10.4364 58.2257,10.5207 58.124,10.6125 58.0223,10.7117 57.9205,10.8183 57.8188,10.9324 57.717,11.054 57.6153,11.183 57.5136,11.3194 57.4118,11.4633 57.3101,11.6146 57.2083,11.7733 57.1066,11.9395 57.0048,12.1132 56.9031,12.2942 56.8014,12.4828 56.6996,12.6787 56.5979,12.8821 56.4961,13.093 56.3944,13.3113 56.2926,13.537 56.1909,13.7702 56.0892,14.0108 55.9874,14.2589 55.8857,14.5144 55.7839,14.7774 55.6822,15.0478 55.5805,15.3256 55.4787,15.6109 55.377,15.9036 55.2752,16.2038 55.1735,16.5114 55.0717,16.8264 54.97,17.1489 54.8683,17.4789 54.7665,17.8162 54.6648,18.1611 54.563,18.5133 54.4613,18.873 54.3595,19.2402 54.2578,19.6148 54.1561,19.9968 54.0543,20.3863 53.9526,20.7832 53.8508,21.1876 53.7491,21.5994 53.6474,22.0187 53.5456,22.4453 53.4439,22.8795 53.3421,23.3211 53.2404,23.7701 53.1386,24.2265 53.0369,24.6905 52.9352,25.1618 52.8334,25.6406 52.7317,26.1268 52.6299,26.6205 52.5282,27.1216 52.4264,27.6302 52.3247,28.1462 52.223,28.6697 52.1212,29.2005 52.0195,29.7389 51.9177,30.2847 51.816,30.8379 51.7143,31.3985 51.6125,31.9666 51.5108,32.5422 51.409,33.1252 51.3073,33.7156 51.2055,34.3135 51.1038,34.9188 51.0021,35.5316 50.9003,36.1518 50.7986,36.7794 50.6968,37.4145 50.5951,38.0571 50.4933,38.707 50.3916,39.3645 50.2899,40.0293 50.1881,40.7016 50.0864,41.3814 49.9846,42.0686 49.8829,42.7632 49.7812,43.4653 49.6794,44.1748 49.5777,44.8917 49.4759,45.6161 49.3742,46.348 49.2724,47.0873 49.1707,47.834 49.069,48.5882 48.9672,49.3498 48.8655,50.1189 48.7637,50.8954 48.662,51.6793 48.5603,52.4707 48.4585,53.2695 48.3568,54.0758 48.255,54.8895 48.1533,55.7107 48.0515,56.5393 47.9498,57.3753 47.8481,58.2188 47.7463,59.0697 47.6446,59.9281 47.5428,60.7939 47.4411,61.6672 47.3393,62.5479 47.2376,63.436 47.1359,64.3316 47.0341,65.2347 46.9324,66.1451 46.8306,67.063 46.7289,67.9884 46.6272,68.9212 46.5254,69.8614 46.4237,70.8091 46.3219,71.7643 46.2202,72.7268 46.1184,73.6969 46.0167,74.6743 45.915,75.6592 45.8132,76.6516 45.7115,77.6513 45.6097,78.6586 45.508,79.6732 45.4062,80.6954 45.3045,81.7249 45.2028,82.7619 45.101,83.8063 44.9993,84.8582 44.8975,85.9176 44.7958,86.9843 44.6941,88.0585 44.5923,89.1402 44.4906,90.2293 44.3888,91.3258 44.2871,92.4298 44.1853,93.5413 44.0836,94.6601 43.9819,95.7864 43.8801,96.9202 43.7784,98.0614 43.6766,99.21 43.5749,100.366 43.4731,101.53 43.3714,102.701 43.2697,103.879 43.1679,105.065 43.0662,106.258 42.9644,107.459 42.8627,108.667 42.761,109.883 42.6592,111.106 42.5575,112.336 42.4557,113.574 42.354,114.82 42.2522,116.072 42.1505,117.333 42.0488,118.6 41.947,119.876 41.8453,121.158 41.7435,122.448 41.6418,123.746 41.54,125.051 41.4383,126.363 41.3366,127.683 41.2348,129.01 41.1331,130.345 41.0313,131.687 40.9296,133.037 40.8279,134.394 40.7261,135.758 40.6244,137.13 40.5226,138.509 40.4209,139.896 40.3191,141.291 40.2174,142.692 40.1157,144.101 40.0139,145.518 39.9122,146.942 39.8104,148.373 39.7087,149.812 39.6069,151.259 39.5052,152.713 39.4035,154.174 39.3017,155.642 39.2,157.119 39.0982,158.602 38.9965,160.093 38.8948,161.592 38.793,163.097 38.6913,164.611 38.5895,166.132 38.4878,167.66 38.386,169.195 38.2843,170.739 38.1826,172.289 38.0808,173.847 37.9791,175.413 37.8773,176.985 37.7756,178.566 37.6738,180.153 37.5721,181.749 37.4704,183.351 37.3686,184.961 37.2669,186.579 37.1651,188.204 37.0634,189.836 36.9617,191.476 36.8599,193.124 36.7582,194.778 36.6564,196.44 36.5547,198.11 36.4529,199.787 36.3512,201.472 36.2495,203.164 36.1477,204.863 36.046,206.57 35.9442,208.284 35.8425,210.006 35.7407,211.735 35.639,213.472 35.5373,215.216 35.4355,216.967 35.3338,218.726 35.232,220.493 35.1303,222.266 35.0286,224.048 34.9268,225.836 34.8251,227.633 34.7233,229.436 34.6216,231.247 34.5198,233.066 34.4181,234.892 34.3164,236.725 34.2146,238.566 34.1129,240.414 34.0111,242.27 33.9094,244.133 33.8076,246.004 33.7059,247.882 33.6042,249.767 33.5024,251.66 33.4007,253.56 33.2989,255.468 33.1972,257.383 33.0955,259.306 32.9937,261.236 32.892,263.174 32.7902,265.119 32.6885,267.071 32.5867,269.031 32.485,270.999 32.3833,272.973 32.2815,274.956 32.1798,276.945 32.078,278.942 31.9763,280.947 31.8745,282.959 31.7728,284.978 31.6711,287.005 31.5693,289.04 31.4676,291.081 31.3658,293.131 31.2641,295.187 31.1624,297.251 31.0606,299.323 30.9589,301.402 30.8571,303.488 30.7554,305.582 30.6536,307.683 30.5519,309.792 30.4502,311.908 30.3484,314.032 30.2467,316.163 30.1449,318.302 30.0432,320.448 29.9414,322.601 29.8397,324.762 29.738,326.93 29.6362,329.106 29.5345,331.289 29.4327,333.48 29.331,335.678 29.2293,337.883 29.1275,340.096 29.0258,342.317 28.924,344.544 28.8223,346.78 28.7205,349.022 28.6188,351.273 28.5171,353.53 28.4153,355.795 28.3136,358.068 28.2118,360.348 28.1101,362.635 28.0083,364.93 27.9066,367.232 27.8049,369.542 27.7031,371.859 27.6014,374.184 27.4996,376.516 27.3979,378.855 27.2962,381.202 27.1944,383.556 27.0927,385.918 26.9909,388.288 26.8892,390.664 26.7874,393.048 26.6857,395.44 26.584,397.839 26.4822,400.245 26.3805,402.659 26.2787,405.081 26.177,407.51 26.0752,409.946 25.9735,412.389 25.8718,414.841 25.77,417.299 25.6683,419.765 25.5665,422.239 25.4648,424.719 25.3631,427.208 25.2613,429.704 25.1596,432.207 25.0578,434.717 24.9561,437.236 24.8543,439.761 24.7526,442.294 24.6509,444.835 24.5491,447.382 24.4474,449.938 24.3456,452.501 24.2439,455.071 24.1421,457.648 24.0404,460.233 23.9387,462.826 23.8369,465.426 23.7352,468.033 23.6334,470.648 23.5317,473.271 23.43,475.9 23.3282,478.538 23.2265,481.182 23.1247,483.834 23.023,486.494 22.9212,489.161 22.8195,491.835 22.7178,494.517 22.616,497.206 22.5143,499.903 22.4125,502.607 22.3108,505.319 22.2091,508.038 22.1073,510.764 22.0056,513.498 21.9038,516.24 21.8021,518.989 21.7003,521.745 21.5986,524.509 21.4969,527.28 21.3951,530.058 21.2934,532.844 21.1916,535.638 21.0899,538.439 20.9881,541.247 20.8864,544.063 20.7847,546.886 20.6829,549.717 20.5812,552.555 20.4794,555.401 20.3777,558.254 20.276,561.114 20.1742,563.982 20.0725,566.857 19.9707,569.74 19.869,572.63 19.7672,575.528 19.6655,578.433 19.5638,581.346 19.462,584.266 19.3603,587.193 19.2585,590.128 19.1568,593.071 19.055,596.02 18.9533,598.978 18.8516,601.942 18.7498,604.914 18.6481,607.894 18.5463,610.881 18.4446,613.875 18.3429,616.877 18.2411,619.887 18.1394,622.903 18.0376,625.928 17.9359,628.959 17.8341,631.998 17.7324,635.045 17.6307,638.099 17.5289,641.16 17.4272,644.229 17.3254,647.305 17.2237,650.389 17.1219,653.48 17.0202,656.579 16.9185,659.685 16.8167,662.799 16.715,665.92 16.6132,669.048 16.5115,672.184 16.4098,675.327 16.308,678.478 16.2063,681.636 16.1045,684.802 16.0028,687.975 15.901,691.155 15.7993,694.343 15.6976,697.539 15.5958,700.742 15.4941,703.952 15.3923,707.17 15.2906,710.395 15.1888,713.627 15.0871,716.867 14.9854,720.115 14.8836,723.37 14.7819,726.632 14.6801,729.902 14.5784,733.179 14.4767,736.464 14.3749,739.756 14.2732,743.056 14.1714,746.363 14.0697,749.677 13.9679,752.999 13.8662,756.329 13.7645,759.665 13.6627,763.01 13.561,766.361 13.4592,769.721 13.3575,773.087 13.2557,776.461 13.154,779.843 13.0523,783.231 12.9505,786.628 12.8488,790.032 12.747,793.443 12.6453,796.862 12.5436,800.288 12.4418,803.721 12.3401,807.162 12.2383,810.611 12.1366,814.067 12.0348,817.53 11.9331,821.001 11.8314,824.479 11.7296,827.965 11.6279,831.458 11.5261,834.958 11.4244,838.466 11.3226,841.982 11.2209,845.505 11.1192,849.035 11.0174,852.573 10.9157,856.118 10.8139,859.671 10.7122,863.231 10.6105,866.798 10.5087,870.373 10.407,873.956 10.3052,877.545 10.2035,881.143 10.1017,884.747 10,888.36" fill="none" stroke="Black" stroke-width="1" stroke-linecap="round" stroke-linejoin="round"/>
  <circle cx="18.47" cy="610.491" r="3" fill="Red"/>
  <circle cx="27.8812" cy="368.938" r="3" fill="Red"/>
  <circle cx="37.2923" cy="190.127" r="3" fill="Red"/>
  <circle cx="46.7035" cy="74.0558" r="3" fill="Red"/>
  <circle cx="56.1146" cy="20.726" r="3" fill="Red"/>
  <circle cx="65.5257" cy="30.1371" r="3" fill="Red"/>
  <circle cx="74.9369" cy="102.289" r="3" fill="Red"/>
  <circle cx="84.348" cy="237.182" r="3" fill="Red"/>
  <circle cx="93.7592" cy="434.816" r="3" fill="Red"/>
  <circle cx="103.17" cy="695.191" r="3" fill="Red"/>
</svg>